<svg viewBox="0 0 182.562 203.486" xmlns="http://www.w3.org/2000/svg" xmlns:xlink="http://www.w3.org/1999/xlink" width="182.561707" height="203.485596" fill="none" customFrame="#000000">
	<path id="Vector 186" d="M0 11.4473C11.9704 4.24893 25.7015 -6.74008 37.9444 5.5029C43.762 11.3205 43.1867 24.6673 39 30.9473C35.5272 36.1566 33.0846 43.8581 25.5556 44.0029C19.6418 44.1166 14.3159 40.5407 13.2222 34.4473C10.1164 17.1435 32.972 19.4715 40.9444 26.4473C51.8262 35.9689 48.3913 74.7921 32.1111 78.2807C18.1525 81.2718 19.4592 65.0691 30.2222 61.2251C45.3627 55.8178 53.8485 60.2683 57.7778 77.6696C60.8458 91.2565 49.3541 105.476 38 109.892C35.6419 110.809 23.6027 119.807 23.0556 117.892C17.6571 98.9972 49.3908 94.0725 60 103.503C72.1897 114.338 84.3998 125.441 87.2222 141.67C88.74 150.397 85.6533 176.703 88.2222 168.225C91.4371 157.616 96.749 143.577 106 136.503C108.753 134.398 117.381 127.463 109.444 134.447C101.271 141.64 93.9041 147.785 87.5556 155.947C86.1427 157.764 87.0908 162.045 87 164.225C86.9231 166.071 82.2038 160.917 81.5556 160.447C75.9582 156.391 69.192 155.542 62.4444 155.447C56.4219 155.363 48.4535 157.128 46 153.447" stroke="rgb(0,173,181)" stroke-opacity="0.200000003" stroke-linecap="round" stroke-linejoin="round" stroke-width="4" transform="matrix(0.866025,-0.5,0.5,0.866025,0,56.3604)" />
</svg>
