<svg viewBox="0 0 122.551 235.749" xmlns="http://www.w3.org/2000/svg" xmlns:xlink="http://www.w3.org/1999/xlink" width="122.551270" height="235.748550" fill="none" customFrame="#000000">
	<path id="Vector 187" d="M0 2.22452C25.4317 -1.73532 20.6163 -1.83148 44.1724 14.0209C49.5524 17.6414 57.4797 21.7899 60.3286 29.4587C64.5327 40.7756 55.6116 79.0016 44.0831 67.6627C36.6327 60.3347 35.5409 45.5907 44.2617 40.0309C58.5631 30.9131 73.7672 47.2761 81.0371 62.4968C89.0409 79.2539 87.679 99.4502 77.1989 113.556C72.4112 119.999 62.9419 119.226 66.1306 106.828C72.6891 81.3267 89.0257 107.785 89.8739 123.767C91.4017 152.555 72.8195 194.168 49.0818 192.487C41.6599 191.961 43.3497 187.426 45.8684 183.837C48.4241 180.194 54.3023 167.532 52.92 172.183C50.5033 180.315 46.425 184.16 42.0302 189.483C36.3616 196.35 52.3526 206.124 57.1152 209.787C59.6154 211.709 63.5332 216.326 64.7024 219.998C67.0112 227.249 55.7196 209.274 53.0985 202.218" stroke="rgb(0,173,181)" stroke-opacity="0.200000003" stroke-linecap="round" stroke-linejoin="round" stroke-width="5" transform="matrix(-0.98328,0.182102,0.15379,0.988104,88.4576,0.313873)" />
</svg>
