<svg viewBox="0 0 514 514" xmlns="http://www.w3.org/2000/svg" xmlns:xlink="http://www.w3.org/1999/xlink" width="514.000000" height="514.000000" fill="none" customFrame="#000000">
	<g id="doodles mixed round">
		<circle id="Ellipse 2" cx="257" cy="257" r="256.5" stroke="rgb(0,0,0)" stroke-opacity="0" stroke-width="1" />
		<g id="glasses">
			<path id="Vector 8" d="M149.686 414.091C148.377 414.284 146.837 414.386 146.525 415.945C146.284 417.153 146.375 418.396 147.099 419.444C148.336 421.234 150.174 422.279 152.388 421.91C154.367 421.581 157.086 419.787 157.086 417.559C157.086 416.303 156.181 415.039 155.433 414.099C154.631 413.092 153.938 412.032 152.928 411.208C151.566 410.097 150.465 409.988 149.24 411.298C148.57 412.015 147.936 412.993 147.643 413.932C147.498 414.395 147.605 414.766 147.605 415.23C147.605 415.848 147.49 414.936 147.605 414.63" stroke="rgb(0,173,181)" stroke-opacity="0.5" stroke-linecap="round" stroke-linejoin="round" stroke-width="1" />
			<path id="Vector 9" d="M156.469 417.63C157.583 418.619 158.527 419.513 160.497 419.561C161.876 419.595 163.254 419.251 164.546 418.88C165.472 418.615 168.438 417.21 166.034 417.097" stroke="rgb(0,173,181)" stroke-opacity="0.5" stroke-linecap="round" stroke-linejoin="round" stroke-width="1" />
			<path id="Vector 10" d="M167.955 409.003C166.485 410.626 164.457 413.807 165.219 416.245C165.487 417.102 165.876 417.679 166.379 418.412C167.393 419.886 168.963 419.426 170.388 419.041C171.42 418.762 172.647 417.883 173.043 416.883C173.588 415.503 172.451 413.345 171.501 412.395C170.44 411.334 169.6 410.043 168.418 409.114C168.103 408.867 167.864 408.599 167.454 408.69C166.993 408.793 166.803 409.234 167.416 409.234" stroke="rgb(0,173,181)" stroke-opacity="0.5" stroke-linecap="round" stroke-linejoin="round" stroke-width="1" />
		</g>
		<g id="glasses">
			<path id="Vector 8" d="M271.866 186.582C270.557 186.776 269.017 186.878 268.706 188.437C268.464 189.645 268.556 190.888 269.28 191.936C270.517 193.726 272.355 194.771 274.568 194.402C276.548 194.072 279.266 192.279 279.266 190.051C279.266 188.795 278.362 187.531 277.613 186.591C276.811 185.583 276.118 184.524 275.108 183.7C273.746 182.589 272.646 182.48 271.421 183.79C270.751 184.507 270.117 185.485 269.823 186.424C269.679 186.887 269.785 187.258 269.785 187.722C269.785 188.34 269.67 187.428 269.785 187.122" stroke="rgb(0,173,181)" stroke-opacity="0.5" stroke-linecap="round" stroke-linejoin="round" stroke-width="1" />
			<path id="Vector 9" d="M278.65 190.122C279.764 191.111 280.708 192.005 282.677 192.053C284.056 192.087 285.435 191.743 286.727 191.372C287.652 191.107 290.618 189.702 288.215 189.589" stroke="rgb(0,173,181)" stroke-opacity="0.5" stroke-linecap="round" stroke-linejoin="round" stroke-width="1" />
			<path id="Vector 10" d="M290.135 181.495C288.666 183.118 286.637 186.299 287.399 188.737C287.667 189.594 288.056 190.171 288.559 190.903C289.573 192.377 291.143 191.918 292.568 191.533C293.601 191.254 294.828 190.375 295.223 189.375C295.769 187.994 294.632 185.837 293.681 184.887C292.62 183.826 291.78 182.535 290.598 181.606C290.283 181.359 290.045 181.091 289.634 181.182C289.173 181.285 288.983 181.726 289.596 181.726" stroke="rgb(0,173,181)" stroke-opacity="0.5" stroke-linecap="round" stroke-linejoin="round" stroke-width="1" />
		</g>
		<g id="keyboard">
			<path id="Vector 75" d="M5.39556 11.2372C13.7535 11.084 21.7662 8.19399 29.6696 5.62639C35.8813 3.60838 42.2852 1.73506 48.702 0.473321C49.9682 0.224356 51.943 -0.537039 52.9692 0.635739C53.9861 1.79789 54.0064 3.7139 54.5934 5.10961C56.0389 8.54675 57.0007 12.3815 57.8196 16.0211C58.7211 20.0277 54.5887 20.1419 51.6108 21.1447C48.2282 22.2837 44.921 23.5406 41.4375 24.3192C38.1264 25.0593 34.9804 26.7233 31.7663 27.8038C26.8678 29.4505 22.0977 31.4057 17.2078 33.0602C14.2968 34.0451 11.2444 34.5422 8.37814 35.6294C7.37385 36.0103 6.3199 36.638 5.26267 36.8549C4.41361 37.0291 4.34062 34.8432 4.26602 34.4039C3.6739 30.9169 1.70857 27.8231 1.20961 24.2306C0.895896 21.9719 1.13201 19.4673 0.530411 17.2614C0.243224 16.2084 -0.561303 13.7664 0.64115 12.9647C1.86887 12.1462 4.13212 12.5148 5.60227 12.1969C6.74829 11.9491 8.14689 11.6359 9.32312 11.6359C10.178 11.6359 11.1328 11.3813 11.9661 11.2298C14.1592 10.8311 12.1672 10.5226 10.8439 10.4399" stroke="rgb(0,173,181)" stroke-opacity="0.5" stroke-linecap="round" stroke-linejoin="round" stroke-width="1" transform="matrix(0.910504,-0.413501,0.413501,0.910504,149.566,131.395)" />
			<path id="Vector 76" d="M0 0C3.00695 4.48924 5.05729 9.94075 6.64436 15.1196C6.68457 15.2508 7.22776 16.1656 7.01349 16.3156C6.5998 16.6052 4.69624 13.5855 4.51817 13.2887" stroke="rgb(0,173,181)" stroke-opacity="0.5" stroke-linecap="round" stroke-linejoin="round" stroke-width="1" transform="matrix(0.910504,-0.413501,0.413501,0.910504,160.278,145.148)" />
			<path id="Vector 77" d="M0 0C2.95032 2.51128 4.13227 5.27692 5.97255 8.4974C6.79228 9.93194 7.67363 11.2909 8.29807 12.8236C8.59131 13.5434 8.66662 14.35 8.90345 15.0901C9.22804 16.1045 7.27494 13.3441 7.04303 13.023" stroke="rgb(0,173,181)" stroke-opacity="0.5" stroke-linecap="round" stroke-linejoin="round" stroke-width="1" transform="matrix(0.910504,-0.413501,0.413501,0.910504,164.832,141.036)" />
			<path id="Vector 78" d="M0 0C1.40053 3.21961 2.82693 6.41532 4.34098 9.58265C4.91617 10.7859 5.64624 11.982 6.0316 13.2666C6.71569 15.5469 5.81086 12.5802 5.44838 11.6941" stroke="rgb(0,173,181)" stroke-opacity="0.5" stroke-linecap="round" stroke-linejoin="round" stroke-width="1" transform="matrix(0.910504,-0.413501,0.413501,0.910504,170.244,137.848)" />
			<path id="Vector 79" d="M0 0C1.27432 1.86962 2.64206 3.74178 3.47722 5.8618C3.8198 6.73144 4.01017 7.65954 4.41481 8.50478C4.9133 9.54607 5.26083 10.6545 5.77321 11.6793C6.50284 13.1386 6.55242 13.4904 5.71415 11.6941" stroke="rgb(0,173,181)" stroke-opacity="0.5" stroke-linecap="round" stroke-linejoin="round" stroke-width="1" transform="matrix(0.910504,-0.413501,0.413501,0.910504,173.896,135.606)" />
			<path id="Vector 80" d="M0 0C1.25186 2.40183 2.3483 4.76155 3.13023 7.35309C3.47655 8.50087 3.62568 9.71197 4.25239 10.7565C4.82654 11.7134 5.33692 12.1463 4.78394 10.7639" stroke="rgb(0,173,181)" stroke-opacity="0.5" stroke-linecap="round" stroke-linejoin="round" stroke-width="1" transform="matrix(0.910504,-0.413501,0.413501,0.910504,178.604,132.154)" />
			<path id="Vector 81" d="M0 0C1.12647 2.06145 2.27968 4.00002 2.89399 6.27523C3.17521 7.31679 3.27344 8.41172 3.6544 9.42761C4.42799 11.4905 3.77767 10.3324 3.18929 8.90345" stroke="rgb(0,173,181)" stroke-opacity="0.5" stroke-linecap="round" stroke-linejoin="round" stroke-width="1" transform="matrix(0.910504,-0.413501,0.413501,0.910504,183.137,128.637)" />
			<path id="Vector 82" d="M0 0C1.35771 3.38683 2.14673 6.98986 3.52151 10.3504C4.44721 12.6132 3.23858 9.11201 3.05641 8.50478" stroke="rgb(0,173,181)" stroke-opacity="0.5" stroke-linecap="round" stroke-linejoin="round" stroke-width="1" transform="matrix(0.910504,-0.413501,0.413501,0.910504,187.317,124.987)" />
			<path id="Vector 83" d="M0 3.23955C2.39539 3.33219 4.93811 3.30071 6.93967 1.77779C7.49161 1.35784 8.09719 1.04909 8.50478 0.478448C9.06455 -0.305222 8.86385 0.0488465 7.97323 0.316031" stroke="rgb(0,173,181)" stroke-opacity="0.5" stroke-linecap="round" stroke-linejoin="round" stroke-width="1" transform="matrix(0.910504,-0.413501,0.413501,0.910504,191.082,119.135)" />
			<path id="Vector 84" d="M0 3.86025C2.27713 3.1012 4.80542 2.29065 6.83631 0.936726C7.84928 0.261415 9.48631 -0.380963 7.3088 0.27229" stroke="rgb(0,173,181)" stroke-opacity="0.5" stroke-linecap="round" stroke-linejoin="round" stroke-width="1" transform="matrix(0.910504,-0.413501,0.413501,0.910504,194.398,121.618)" />
			<path id="Vector 85" d="M0 3.58796C2.18001 2.66466 4.14885 1.7793 6.2457 0.73088C6.92319 0.392135 8.56148 0.297372 6.77725 0" stroke="rgb(0,173,181)" stroke-opacity="0.5" stroke-linecap="round" stroke-linejoin="round" stroke-width="1" transform="matrix(0.910504,-0.413501,0.413501,0.910504,200.152,125.288)" />
			<path id="Vector 86" d="M0 3.98662C2.12245 3.37123 4.54255 2.63157 6.50409 1.5282C7.02733 1.23388 7.4989 0.855458 8.00276 0.531549C8.84675 -0.0110152 8.76038 0.262381 7.97323 0" stroke="rgb(0,173,181)" stroke-opacity="0.5" stroke-linecap="round" stroke-linejoin="round" stroke-width="1" transform="matrix(0.910504,-0.413501,0.413501,0.910504,198.711,124.045)" />
			<path id="Vector 87" d="M0 10.4981C9.01597 10.8629 14.7051 3.32413 23.0633 1.39532C24.0801 1.16068 24.9845 0.797324 26.0459 0.797324C26.7556 0.797324 27.5403 0.999376 28.2312 0.90068C28.6526 0.840475 32.3067 0 30.0325 0" stroke="rgb(0,173,181)" stroke-opacity="0.5" stroke-linecap="round" stroke-linejoin="round" stroke-width="1" transform="matrix(0.910504,-0.413501,0.413501,0.910504,160.467,138.494)" />
			<path id="Vector 88" d="M0 9.39563C1.32587 8.7449 2.48796 8.20032 3.91279 7.94126C4.14647 7.89877 4.43013 8.00253 4.65105 7.90434C5.08865 7.70985 5.74382 7.43251 6.04637 7.06272C7.23792 5.60639 9.24642 6.88789 10.7639 6.57547C12.2074 6.27827 13.615 5.95296 15.0753 5.67479C16.6843 5.36833 17.5904 4.87032 19.0693 4.21303C20.4278 3.60926 21.7653 2.98191 23.1519 2.45597C24.2863 2.02569 25.8331 1.8683 26.7842 1.09018C27.8575 0.212006 29.8751 -0.434718 31.0661 0.3593C31.4752 0.632047 33.8672 3.98756 32.2916 1.82106" stroke="rgb(0,173,181)" stroke-opacity="0.5" stroke-linecap="round" stroke-linejoin="round" stroke-width="1" transform="matrix(0.910504,-0.413501,0.413501,0.910504,157.03,137.033)" />
			<path id="Vector 89" d="M0 12.7572C7.0901 12.3376 13.2519 7.2012 19.372 3.98662C21.6262 2.80259 24.2121 2.50989 26.5184 1.38793C27.5048 0.908038 29.2829 0.729928 27.6405 0" stroke="rgb(0,173,181)" stroke-opacity="0.5" stroke-linecap="round" stroke-linejoin="round" stroke-width="1" transform="matrix(0.910504,-0.413501,0.413501,0.910504,163.205,138.418)" />
			<path id="Vector 90" d="M0 12.8724C6.62987 12.0398 12.6407 7.61877 18.5452 4.6334C21.2313 3.27522 23.8781 1.84508 26.5774 0.513893C27.8081 -0.0930205 29.4628 -0.0698477 27.2419 0.115231" stroke="rgb(0,173,181)" stroke-opacity="0.5" stroke-linecap="round" stroke-linejoin="round" stroke-width="1" transform="matrix(0.910504,-0.413501,0.413501,0.910504,165.401,140.359)" />
			<path id="Vector 91" d="M0 14.5635C4.6665 12.8784 8.82326 10.6608 13.1263 8.21442C15.7428 6.72688 18.2661 4.8651 21.0626 3.72578C22.6672 3.07209 24.1113 2.10919 25.6472 1.3412C26.266 1.03182 26.7986 0.58578 27.4265 0.285481C28.8408 -0.390953 27.7517 0.307497 26.8432 0.610316" stroke="rgb(0,173,181)" stroke-opacity="0.5" stroke-linecap="round" stroke-linejoin="round" stroke-width="1" transform="matrix(0.910504,-0.413501,0.413501,0.910504,166.944,142.472)" />
			<path id="Vector 92" d="M0 13.5545C2.32547 12.7089 5.37274 12.2623 7.37524 10.7048C8.10226 10.1393 9.88107 8.7848 10.7639 8.63767C11.9309 8.44317 12.9373 7.359 13.9532 6.85108C15.0111 6.32213 16.0455 5.80691 17.1425 5.34502C18.1711 4.91189 18.9869 3.70225 20.1324 3.44769C21.4085 3.1641 22.3744 2.2667 23.521 1.75706C24.5135 1.31597 26.1116 1.11759 27.1828 0.922828C27.7764 0.814912 28.2854 0.531549 28.903 0.531549C30.1548 0.531549 29.3717 0.466916 28.4379 0" stroke="rgb(0,173,181)" stroke-opacity="0.5" stroke-linecap="round" stroke-linejoin="round" stroke-width="1" transform="matrix(0.910504,-0.413501,0.413501,0.910504,168.196,144.908)" />
			<path id="Vector 93" d="M0 0C1.17204 0.955664 2.70416 1.94222 3.58796 3.21883C4.15832 4.04268 4.62659 4.82244 3.58796 3.32218" stroke="rgb(0,173,181)" stroke-opacity="0.5" stroke-linecap="round" stroke-linejoin="round" stroke-width="1" transform="matrix(0.910504,-0.413501,0.413501,0.910504,192.278,122.734)" />
			<path id="Vector 94" d="M0 0C1.67393 1.35871 2.76357 2.52451 3.85373 4.23763C4.56651 5.35771 4.48707 5.10113 3.72084 3.98662" stroke="rgb(0,173,181)" stroke-opacity="0.5" stroke-linecap="round" stroke-linejoin="round" stroke-width="1" transform="matrix(0.910504,-0.413501,0.413501,0.910504,193.796,120.293)" />
			<path id="Vector 95" d="M0 0C1.21437 1.65787 2.32325 3.41882 3.64702 4.98327C4.42561 5.90343 3.91996 5.63416 3.32218 4.91683" stroke="rgb(0,173,181)" stroke-opacity="0.5" stroke-linecap="round" stroke-linejoin="round" stroke-width="1" transform="matrix(0.910504,-0.413501,0.413501,0.910504,196.327,117.83)" />
			<path id="Vector 96" d="M0 0C1.36026 1.5596 2.588 3.05514 3.72084 4.75441C4.23743 5.5293 3.57084 5.26153 3.18929 4.65105" stroke="rgb(0,173,181)" stroke-opacity="0.5" stroke-linecap="round" stroke-linejoin="round" stroke-width="1" transform="matrix(0.910504,-0.413501,0.413501,0.910504,197.768,115.862)" />
			<path id="Vector 97" d="M0 4.1173C1.99519 3.16534 3.95776 2.296 5.85442 1.25284C6.39329 0.956459 9.56882 -0.614051 8.10612 0.263567" stroke="rgb(0,173,181)" stroke-opacity="0.5" stroke-linecap="round" stroke-linejoin="round" stroke-width="1" transform="matrix(0.910504,-0.413501,0.413501,0.910504,191.499,118.127)" />
			<path id="Vector 98" d="M0 5.02149C2.36262 4.29676 5.69444 3.413 7.24974 1.43353C7.70746 0.850979 8.35219 0.353784 9.06586 0.134192C9.78967 -0.0885191 10.4231 -0.0499191 9.30211 0.370436" stroke="rgb(0,173,181)" stroke-opacity="0.5" stroke-linecap="round" stroke-linejoin="round" stroke-width="1" transform="matrix(0.910504,-0.413501,0.413501,0.910504,192.62,120.274)" />
			<path id="Vector 99" d="M0 5.1128C2.67681 3.99309 4.8041 3.38955 6.90275 1.46578C7.4478 0.966156 7.98338 0.590126 8.63767 0.29933C9.33104 -0.00883341 10.2093 -0.193472 8.90345 0.32886" stroke="rgb(0,173,181)" stroke-opacity="0.5" stroke-linecap="round" stroke-linejoin="round" stroke-width="1" transform="matrix(0.910504,-0.413501,0.413501,0.910504,191.098,120.135)" />
			<path id="Vector 100" d="M0 0C0.58943 0.900702 1.19852 1.76392 1.86042 2.5913C2.13379 2.93301 1.85283 2.38438 1.72753 2.25908" stroke="rgb(0,173,181)" stroke-opacity="0.5" stroke-linecap="round" stroke-linejoin="round" stroke-width="1" transform="matrix(0.910504,-0.413501,0.413501,0.910504,200.547,125.838)" />
			<path id="Vector 101" d="M0 0C0.0343281 0.0729471 2.02218 4.33901 1.72753 3.45507" stroke="rgb(0,173,181)" stroke-opacity="0.5" stroke-linecap="round" stroke-linejoin="round" stroke-width="1" transform="matrix(0.910504,-0.413501,0.413501,0.910504,202.319,122.99)" />
			<path id="Vector 102" d="M0 0C0.404132 1.01664 1.68525 4.03493 1.19599 3.05641" stroke="rgb(0,173,181)" stroke-opacity="0.5" stroke-linecap="round" stroke-linejoin="round" stroke-width="1" transform="matrix(0.910504,-0.413501,0.413501,0.910504,204.442,121.88)" />
			<path id="Vector 103" d="M0 3.64975C1.69267 3.0822 5.29831 2.07228 6.71081 0.659784C7.26742 0.103166 8.8129 -0.235064 7.3088 0.194678" stroke="rgb(0,173,181)" stroke-opacity="0.5" stroke-linecap="round" stroke-linejoin="round" stroke-width="1" transform="matrix(0.910504,-0.413501,0.413501,0.910504,197.982,123.724)" />
			<path id="Vector 104" d="M0 3.98662C0.0718563 4.12836 1.23421 7.6123 2.25908 6.64436C2.78219 6.15032 3.46348 5.50679 4.22286 5.44838C5.55505 5.3459 6.59067 3.58796 7.90679 3.58796C9.39984 3.58796 9.71233 2.59277 8.7115 1.73492C8.31826 1.39786 9.08084 0.667661 8.57861 0.524166C8.11894 0.392832 7.9631 0.130353 7.44169 0" stroke="rgb(0,173,181)" stroke-opacity="0.5" stroke-linecap="round" stroke-linejoin="round" stroke-width="1" transform="matrix(0.910504,-0.413501,0.413501,0.910504,198.007,123.78)" />
			<path id="Vector 105" d="M0 3.85373C0.10317 5.69933 0.00521451 6.30703 0.981889 7.50075C1.2455 7.82293 1.79486 7.79162 1.99331 8.03968C2.38598 8.53051 3.39211 8.99399 3.98662 8.69673C5.18203 8.09903 5.74112 7.61677 7.17591 7.57457C8.08108 7.54795 9.06538 6.96222 9.7303 6.40812C10.4611 5.79912 11.4061 5.5193 12.1592 4.91683C12.4799 4.66029 11.5035 3.18108 11.7531 2.59868C11.8239 2.43354 10.2038 1.69185 9.99607 1.43223C9.74441 1.11765 9.70077 0.815525 9.70077 0.398662C9.70077 -0.210216 9.00962 0.2319 8.3719 0" stroke="rgb(0,173,181)" stroke-opacity="0.5" stroke-linecap="round" stroke-linejoin="round" stroke-width="1" transform="matrix(0.910504,-0.413501,0.413501,0.910504,190.52,118.862)" />
			<path id="Vector 106" d="M0 0C1.52501 1.53762 2.72215 3.17089 3.92756 4.92421C4.9741 6.44645 6.39218 7.64828 7.44169 9.13969C8.18884 10.2014 8.62555 12.0491 8.96989 13.2887C9.08462 13.7018 9.14464 14.0667 9.16922 14.4847C9.22563 15.4436 9.65085 13.3805 9.70077 13.1558" stroke="rgb(0,173,181)" stroke-opacity="0.5" stroke-linecap="round" stroke-linejoin="round" stroke-width="1" transform="matrix(0.910504,-0.413501,0.413501,0.910504,162.434,143.147)" />
			<path id="Vector 107" d="M0 0C0.267398 0.768768 0.991564 4.67142 1.59465 2.25908" stroke="rgb(0,173,181)" stroke-opacity="0.5" stroke-linecap="round" stroke-linejoin="round" stroke-width="1" transform="matrix(0.910504,-0.413501,0.413501,0.910504,181.982,127.701)" />
		</g>
		<g id="food">
			<path id="Vector 33" d="M186.661 353.572C186.902 354.811 187.514 355.616 187.989 356.743C188.312 357.511 188.916 358.106 189.253 358.859C189.616 359.672 190.161 360.628 190.667 361.352C191.102 361.972 191.386 362.56 191.935 363.109C192.903 364.077 193.636 365.232 194.61 366.187C196.025 367.575 198.421 369.386 200.482 369.272C201.144 369.235 201.877 369.44 202.527 369.342C203.084 369.258 203.761 369.23 204.319 369.326C205.236 369.484 206.232 369.325 207.109 369.515C207.583 369.618 208.099 369.468 208.578 369.557C209.2 369.672 209.929 369.701 210.562 369.701C212.636 369.701 214.705 369.688 216.774 369.426C217.895 369.283 219.005 369.655 220.115 369.458C221.156 369.272 222.543 369.464 223.523 369.035C224.727 368.508 225.924 367.68 226.854 366.75C227.32 366.284 227.674 365.727 227.99 365.15C228.405 364.393 228.636 363.576 229.053 362.82C230.506 360.186 231.335 357.253 232.512 354.507C232.789 353.859 233.245 353.335 233.578 352.737C233.662 352.586 233.7 352.392 233.837 352.247C234.35 351.704 233.367 351.646 232.915 351.441" stroke="rgb(0,173,181)" stroke-opacity="0.5" stroke-linecap="round" stroke-linejoin="round" stroke-width="1" />
			<path id="Vector 34" d="M186.43 353.687C187.46 352.341 188.333 351.351 189.829 350.59C191.082 349.952 192.381 349.195 193.512 348.362C195.251 347.084 197.645 346.514 199.762 346.129C202.067 345.71 204.335 345.22 206.681 345.22C207.406 345.22 208.125 345.438 208.85 345.45C209.719 345.465 210.59 345.492 211.455 345.566C212.783 345.679 214.145 345.652 215.475 345.681C217.329 345.721 219.105 346.681 220.96 346.83C222.063 346.918 223.349 347.083 224.422 347.383C224.824 347.496 225.282 347.572 225.657 347.754C226.124 347.981 226.451 348.365 226.88 348.631C228.264 349.492 229.811 349.897 231.306 350.551C231.764 350.752 232.552 351.095 233.059 351.095C233.758 351.095 233.722 352.385 233.722 351.095" stroke="rgb(0,173,181)" stroke-opacity="0.5" stroke-linecap="round" stroke-linejoin="round" stroke-width="1" />
			<path id="Vector 35" d="M233.606 351.902C232.752 353.047 232.143 353.483 230.931 354.151C229.979 354.676 228.925 355.048 227.859 355.243C226.863 355.425 225.776 355.568 224.767 355.649C223.928 355.716 223.071 355.619 222.214 355.716C220.274 355.937 218.318 356.437 216.447 356.984C213.777 357.764 211.198 357.845 208.44 357.995C205.43 358.158 202.411 357.928 199.461 357.316C198.466 357.11 197.414 357.295 196.402 357.256C195.286 357.212 194.193 356.905 193.144 356.542C192.702 356.389 192.295 356.155 191.832 356.049C191.29 355.926 190.738 355.974 190.2 355.844C189.45 355.663 188.574 355.336 187.941 354.897C187.665 354.706 187.251 354.549 187.035 354.26C186.972 354.176 186.891 353.989 186.891 353.889C186.891 353.651 186.696 353.711 187.006 353.918" stroke="rgb(0,173,181)" stroke-opacity="0.5" stroke-linecap="round" stroke-linejoin="round" stroke-width="1" />
			<path id="Vector 36" d="M208.838 363.595C209.539 363.517 210.465 363.53 210.175 362.629C210.082 362.339 209.848 362.308 209.599 362.225C208.858 361.978 207.532 362.457 207.253 363.23C206.754 364.618 207.7 366.118 209.186 365.637C209.591 365.506 210.308 365.22 210.566 364.853C210.874 364.412 210.411 364.542 210.105 364.113" stroke="rgb(0,173,181)" stroke-opacity="0.5" stroke-linecap="round" stroke-linejoin="round" stroke-width="1" />
			<path id="Vector 37" d="M206.706 362.097C207.824 361.649 208.395 361.464 209.526 361.464C209.981 361.464 210.209 361.432 210.61 361.694C211.274 362.128 211.502 362.952 211.433 363.678C211.374 364.291 211.172 365.132 210.956 365.713C210.796 366.146 210.399 366.221 209.993 366.302C209.622 366.376 208.813 366.169 208.521 366.331C208.211 366.503 207.263 366.561 207.023 366.241C206.803 365.947 206.566 365.821 206.405 365.464C206.252 365.123 206.183 364.798 206.06 364.459C205.891 363.994 205.587 362.723 206.217 362.443C206.586 362.279 206.744 362.181 207.167 362.181C207.287 362.181 207.39 362.27 207.513 362.27C207.69 362.27 207.171 362.155 206.994 362.155" stroke="rgb(0,173,181)" stroke-opacity="0.5" stroke-linecap="round" stroke-linejoin="round" stroke-width="1" />
			<path id="Vector 38" d="M208.722 357.489C209.535 356.439 210.276 355.355 211.116 354.334C211.567 353.785 212.127 353.313 212.614 352.788C214.006 351.285 215.424 349.639 216.486 347.882C217.531 346.152 218.958 344.267 220.508 342.967C221.327 342.28 222.059 341.522 222.771 340.73C223.462 339.962 223.78 338.889 224.435 338.077C224.942 337.449 228.26 333.174 228.838 335.773C229.065 336.795 228.069 337.509 227.443 338.135C226.733 338.845 226.019 339.747 225.414 340.554C224.831 341.332 224.121 342.016 223.555 342.801C222.784 343.868 221.381 344.632 220.819 345.841C220.355 346.838 219.585 347.64 219.007 348.564C218.207 349.845 217.269 350.915 216.326 352.087C215.578 353.016 214.407 353.78 213.878 354.84C213.435 355.724 212.651 356.097 211.935 356.67C211.624 356.919 211.245 357.058 210.969 357.403C210.877 357.518 210.712 357.65 210.626 357.521C210.577 357.448 210.39 357.613 210.425 357.694C210.548 357.981 210.249 357.005 210.22 356.913" stroke="rgb(0,173,181)" stroke-opacity="0.5" stroke-linecap="round" stroke-linejoin="round" stroke-width="1" />
			<path id="Vector 39" d="M208.261 357.777C208.482 357.889 209.874 358.946 209.874 358.094C209.874 357.836 210.206 357.406 210.322 357.144C210.411 356.945 209.615 357.135 209.497 357.288C209.342 357.486 209.042 357.648 209.529 357.662C209.903 357.673 210.195 357.512 210.479 357.291C210.561 357.227 211.66 357.401 210.681 357.374C210.16 357.359 209.654 357.374 209.154 357.374C208.722 357.374 209.598 357.259 209.724 357.259C209.825 357.259 208.994 357.753 208.85 357.592C208.815 357.552 208.755 357.444 208.895 357.374" stroke="rgb(0,173,181)" stroke-opacity="0.5" stroke-linecap="round" stroke-linejoin="round" stroke-width="1" />
			<path id="Vector 40" d="M189.944 353.515C190.009 353.549 192.068 354.627 192.075 354.494C192.085 354.333 191.97 354.192 192.05 354.033C192.398 353.337 192.849 353.671 193.448 353.94C193.916 354.151 193.206 351.82 194.616 352.804C195.345 353.313 195.539 353.232 195.419 352.379C195.329 351.733 195.552 351.731 196.107 351.799C196.485 351.846 196.756 351.928 196.972 351.569C197.233 351.133 197.528 350.885 198.063 351.073C198.506 351.229 198.9 351.668 199.205 351.108C199.339 350.862 199.226 350.125 199.65 350.267C199.916 350.355 200.266 350.702 200.568 350.593C200.798 350.51 200.974 349.799 201.234 349.911C201.505 350.029 201.782 350.543 202.124 350.42C202.289 350.361 202.595 349.821 202.271 349.886" stroke="rgb(0,173,181)" stroke-opacity="0.5" stroke-linecap="round" stroke-linejoin="round" stroke-width="1" />
			<path id="Vector 41" d="M198.066 352.478C198.78 353.059 201.454 356.162 202.239 353.844C202.38 353.429 202.402 352.607 202.796 353.287C203.12 353.848 203.609 354.237 204.14 353.707C204.492 353.355 204.648 352.758 205.151 352.574C205.613 352.405 205.951 353.273 206.335 352.766C206.645 352.357 206.495 351.654 206.041 351.409C205.892 351.328 205.85 351.606 205.785 351.671" stroke="rgb(0,173,181)" stroke-opacity="0.5" stroke-linecap="round" stroke-linejoin="round" stroke-width="1" />
			<path id="Vector 42" d="M204.229 348.906C205.342 348.715 206.743 348.326 207.589 349.323C207.982 349.784 207.944 350.374 207.685 350.897C207.496 351.279 206.987 351.47 206.661 351.095C206.395 350.788 206.945 350.281 207.141 350.094C207.816 349.451 208.815 350.48 209.026 351.179C209.203 351.762 207.608 353.114 207.801 352.535" stroke="rgb(0,173,181)" stroke-opacity="0.5" stroke-linecap="round" stroke-linejoin="round" stroke-width="1" />
			<path id="Vector 43" d="M222.95 350.865C223.28 350.751 225.406 350.067 224.998 351.198C224.788 351.778 223.987 352.089 223.462 352.279C223.213 352.369 222.571 352.354 222.988 351.991C223.349 351.678 223.858 351.531 224.332 351.569C226.181 351.719 223.596 353.843 223.065 354.136C222.034 354.705 220.631 355.303 219.551 354.609" stroke="rgb(0,173,181)" stroke-opacity="0.5" stroke-linecap="round" stroke-linejoin="round" stroke-width="1" />
			<path id="Vector 44" d="M211.602 347.466C212.041 348.18 212.568 348.896 212.943 349.646C213.072 349.904 212.514 349.243 212.383 348.986C212.348 348.918 212.108 348.162 212.085 348.167C211.805 348.23 211.739 349.514 211.663 349.751C211.304 350.873 210.417 350.443 209.548 350.359C208.495 350.258 208.024 351.296 207.442 351.959C206.976 352.49 206.793 352.653 207.109 353.284C207.365 353.795 207.471 354.291 207.109 354.753C206.827 355.114 206.474 355.342 206.133 355.639C205.821 355.912 206.269 355.867 206.21 355.703C206.05 355.256 205.064 355.349 204.741 355.371C203.542 355.45 202.321 355.149 201.144 355.223C200.519 355.263 199.93 355.612 199.311 355.703C198.681 355.797 199.513 356.343 199.749 356.5C200.155 356.771 198.955 355.925 198.514 355.716C197.774 355.366 197.092 355.095 196.709 354.321C196.325 353.545 195.988 353.016 195.339 352.446C195.116 352.249 195.089 351.951 195.198 351.684C195.451 351.067 196.012 350.565 196.568 350.231" stroke="rgb(0,173,181)" stroke-opacity="0.5" stroke-linecap="round" stroke-linejoin="round" stroke-width="1" />
			<path id="Vector 45" d="M211.487 349.771C210.043 348.763 208.852 348.329 207.154 348.1C206.557 348.02 205.921 347.607 205.532 347.15C205.186 346.744 205.382 346.852 204.975 347.402C204.419 348.155 204.006 347.479 203.295 347.678C202.206 347.981 201.271 348.994 200.165 349.182C199.863 349.233 199.936 348.727 199.557 348.945C198.92 349.312 198.433 349.66 197.688 349.777C197.238 349.848 196.385 350.144 196.453 350.692" stroke="rgb(0,173,181)" stroke-opacity="0.5" stroke-linecap="round" stroke-linejoin="round" stroke-width="1" />
			<path id="Vector 46" d="M221.279 349.771C222.673 349.905 224.084 349.887 225.472 350.036C225.96 350.088 226.21 350.286 226.553 350.606C226.863 350.894 227.347 351.574 227.792 351.611C228.433 351.664 228.764 351.398 229.363 351.211C229.723 351.098 230.873 351.211 230.496 351.211" stroke="rgb(0,173,181)" stroke-opacity="0.5" stroke-linecap="round" stroke-linejoin="round" stroke-width="1" />
			<path id="Vector 47" d="M220.243 351.326C218.745 352.313 217.945 353.81 216.342 354.708C216.024 354.886 215.053 355.231 215.126 355.816C215.179 356.239 218.424 354.914 218.918 354.667" stroke="rgb(0,173,181)" stroke-opacity="0.5" stroke-linecap="round" stroke-linejoin="round" stroke-width="1" />
			<path id="Vector 48" d="M225.83 352.708C226.644 353.314 227.347 354.181 228.365 353.873C228.64 353.79 229.216 353.757 229.401 353.572" stroke="rgb(0,173,181)" stroke-opacity="0.5" stroke-linecap="round" stroke-linejoin="round" stroke-width="1" />
		</g>
		<g id="clock">
			<path id="Vector 108" d="M427.132 327.597C422.925 328.404 419.867 329.619 417.201 333.047C415.511 335.219 415.882 338.638 416.989 340.941C418.813 344.736 423.297 346.879 427.343 347.065C432.057 347.281 438.609 345.896 439.575 340.275C440.093 337.262 437.214 334.413 435.866 331.942C434.77 329.931 433.118 327.221 430.81 326.371C429.868 326.024 427.681 326.144 426.995 327.082C426.689 327.501 426.295 327.944 426.072 328.414C425.891 328.796 426.085 327.444 426.042 327.052" stroke="rgb(0,173,181)" stroke-opacity="0.5" stroke-linecap="round" stroke-linejoin="round" stroke-width="1" />
			<path id="Vector 109" d="M428.903 337.951C427.768 338.535 425.926 338.921 426.92 340.199C427.146 340.491 427.469 340.475 427.745 340.199C427.98 339.964 429.167 338.728 428.29 338.436C426.502 337.84 427.155 341.407 428.433 339.829C429.12 338.981 428.159 338.146 427.298 338.663C426.272 339.278 427.084 340.353 427.888 339.42C428.495 338.716 428.011 338.177 427.351 338.837C426.76 339.428 427.36 340.37 427.941 339.571C428.537 338.752 427.858 338.058 427.139 338.776C426.307 339.608 427.208 339.521 427.798 338.973C428.392 338.421 427.338 338.503 426.995 338.935C426.2 339.941 427.446 339.798 427.646 338.935C427.941 337.668 426.634 340.58 427.268 338.36" stroke="rgb(0,173,181)" stroke-opacity="0.5" stroke-linecap="round" stroke-linejoin="round" stroke-width="1" />
			<path id="Vector 110" d="M424.271 333.728C425.481 335.325 426.721 336.839 427.737 338.436C428.019 338.878 427.794 339.322 427.949 339.314C428.522 339.282 429.11 339.178 429.72 339.178C431.118 339.178 432.218 338.496 433.565 338.496C435.196 338.496 437.593 338.073 434.897 336.725" stroke="rgb(0,173,181)" stroke-opacity="0.5" stroke-linecap="round" stroke-linejoin="round" stroke-width="1" />
			<path id="Vector 111" d="M422.908 327.461C422.653 326.173 421.41 323.05 423.725 323.381C424.556 323.5 425.114 324.359 425.602 324.902C426.874 326.315 426.738 328.021 424.679 328.142C424.14 328.174 423.38 329.243 422.772 328.483C422.082 327.621 422.786 327.679 422.908 326.643C422.988 325.966 422.545 326.022 422.355 325.356C422.209 324.846 422.512 324.287 422.635 323.918" stroke="rgb(0,173,181)" stroke-opacity="0.5" stroke-linecap="round" stroke-linejoin="round" stroke-width="1" />
			<path id="Vector 112" d="M423.725 325.962C423.713 326.287 423.211 329.22 424.278 328.74C424.635 328.579 424.943 328.346 425.088 327.975C425.228 327.617 425.079 327.402 424.921 327.052C424.515 326.149 423.336 324.745 423.695 326.779C423.922 328.063 425.355 327.763 425.466 326.537C425.551 325.601 424.371 324.347 423.619 325.417C423.088 326.174 424.035 327.842 424.588 326.673C424.869 326.08 424.197 324.572 423.483 325.311C422.751 326.069 423.851 327.669 424.573 327.022C425.287 326.382 424.802 324.43 424.028 325.175C423.321 325.856 424.382 327.212 424.921 326.174C425.523 325.016 424.198 324.143 423.786 325.356C423.418 326.44 424.565 327.604 424.831 326.129C425.032 325.005 422.969 324.408 422.969 325.75C422.969 326.987 424.074 326.86 424.074 325.735C424.074 324.562 422.893 324.826 423.385 325.811C423.877 326.795 424.537 325.048 423.983 324.494C423.336 323.847 422.479 324.847 423.241 325.47C423.76 325.895 424.47 324.132 423.597 323.805C422.843 323.522 423.26 325.062 423.521 324.713C423.926 324.173 423.305 323.811 423.733 323.918C424.11 324.013 425.026 324.214 425.285 324.547C425.488 324.808 426.314 326.265 426.314 326.643C426.314 327.801 424.544 328.424 423.529 328.134C422.8 327.926 422.584 328.441 422.84 328.271C423.46 327.857 423.589 326.779 423.589 327.188" stroke="rgb(0,173,181)" stroke-opacity="0.5" stroke-linecap="round" stroke-linejoin="round" stroke-width="1" />
			<path id="Vector 113" d="M423.589 346.943C422.888 348.432 422.265 349.927 421.44 351.334C421.254 351.65 420.905 352.297 420.864 352.666C420.754 353.66 421.752 350.295 421.954 349.805" stroke="rgb(0,173,181)" stroke-opacity="0.5" stroke-linecap="round" stroke-linejoin="round" stroke-width="1" />
			<path id="Vector 114" d="M437.35 344.082C439.075 346.261 440.978 347.815 442.323 350.206C442.455 350.441 442.685 350.628 442.868 350.811C443.48 351.423 441.732 349.505 441.165 348.851" stroke="rgb(0,173,181)" stroke-opacity="0.5" stroke-linecap="round" stroke-linejoin="round" stroke-width="1" />
		</g>
		<g id="python">
			<path id="Vector 159" d="M7.37295 0C6.52352 4.12578 3.50444 19.533 1.93101 24.9276C-2.40164 39.7824 3.00791 19.2629 0 25.2787" stroke="rgb(0,173,181)" stroke-opacity="0.5" stroke-linecap="round" stroke-linejoin="round" stroke-width="2" transform="matrix(0.895132,-0.445801,0.445801,0.895132,316.465,220.338)" />
			<path id="Vector 160" d="M0.282756 10.7294C2.71565 5.01884 5.30535 -3.29895 12.688 1.36691C16.1612 3.56193 19.11 7.74115 19.944 11.7827C21.2327 18.0283 15.9069 24.062 10.3182 25.7386C7.3442 26.6308 4.90313 26.6042 1.89193 26.0019C-3.20877 24.9818 3.44659 20.5064 5.02251 19.1556" stroke="rgb(0,173,181)" stroke-opacity="0.5" stroke-linecap="round" stroke-linejoin="round" stroke-width="2" transform="matrix(0.895132,-0.445801,0.445801,0.895132,310.717,214.156)" />
			<path id="Vector 161" d="M5.57213 0C13.5056 3.43548 21.3763 5.45667 19.9669 15.214C19.1479 20.8846 18.1573 27.7763 14.2617 32.242C10.7418 36.2771 6.69158 37.8786 2.90967 33.5294C-2.49447 27.3146 0.161949 22.0038 6.50838 18.5494C8.84507 17.2775 16.0182 15.9726 17.1582 13.6926" stroke="rgb(0,173,181)" stroke-opacity="0.5" stroke-linecap="round" stroke-linejoin="round" stroke-width="2" transform="matrix(0.895132,-0.445801,0.445801,0.895132,333.364,233.691)" />
			<path id="Vector 162" d="M16.3316 2.17461C15.0555 4.07651 7.88788 18.4579 3.92635 16.6572C3.18345 16.3195 2.38126 16.3939 1.58573 16.3939C-1.47301 16.3939 0.564739 16.0381 2.11237 15.2236C5.61733 13.3788 9.28565 16.5321 13.2888 13.7607C17.6359 10.7512 19.703 9.23527 18.0286 4.3982C16.8551 1.00823 19.7668 -2.31385 15.2784 2.17461" stroke="rgb(0,173,181)" stroke-opacity="0.5" stroke-linecap="round" stroke-linejoin="round" stroke-width="2" transform="matrix(0.895132,-0.445801,0.445801,0.895132,338.323,226.438)" />
			<path id="Vector 163" d="M1.00287 0C0.640889 8.21128 -0.990361 18.3271 0.88584 26.566C1.38166 28.7433 2.7628 27.751 3.34349 26.5368C4.07731 25.0024 4.41254 23.253 4.68935 21.5922" stroke="rgb(0,173,181)" stroke-opacity="0.5" stroke-linecap="round" stroke-linejoin="round" stroke-width="2" transform="matrix(0.895132,-0.445801,0.445801,0.895132,365.755,206.969)" />
			<path id="Vector 164" d="M0 0.526639C5.66715 1.02225 18.2422 4.92993 23.1721 0" stroke="rgb(0,173,181)" stroke-opacity="0.5" stroke-linecap="round" stroke-linejoin="round" stroke-width="2" transform="matrix(0.895132,-0.445801,0.445801,0.895132,356.731,225.583)" />
			<path id="Vector 165" d="M0 0C2.64686 46.1546 -4.7882 10.9385 8.92361 9.56728C17.2467 8.73497 8.41397 27.7956 14.2193 20.5389" stroke="rgb(0,173,181)" stroke-opacity="0.5" stroke-linecap="round" stroke-linejoin="round" stroke-width="2" transform="matrix(0.895132,-0.445801,0.445801,0.895132,373.247,206.768)" />
			<path id="Vector 166" d="M1.98079 0.721588C1.61618 3.32093 -3.20607 19.2752 3.67774 18.5103C6.75568 18.1683 10.8961 16.6553 12.7476 14.0631C14.7344 11.2816 16.6697 2.66602 11.9869 1.36526C9.84989 0.771635 6.54473 -0.760657 4.35067 0.458269C2.22968 1.63659 -0.634361 5.4433 3.03407 1.77487" stroke="rgb(0,173,181)" stroke-opacity="0.5" stroke-linecap="round" stroke-linejoin="round" stroke-width="2" transform="matrix(0.895132,-0.445801,0.445801,0.895132,391.645,205.624)" />
			<path id="Vector 167" d="M0 0.165082C7.68691 -0.67349 15.144 1.50802 11.6446 10.7564C11.2054 11.917 10.5328 13.3194 10.5328 14.5891C10.5328 16.0618 11.3497 11.3965 10.5328 10.1712" stroke="rgb(0,173,181)" stroke-opacity="0.5" stroke-linecap="round" stroke-linejoin="round" stroke-width="2" transform="matrix(0.895132,-0.445801,0.445801,0.895132,409.923,201.261)" />
			<path id="Vector 168" d="M5.81514 0C3.78591 4.73486 0.0221055 10.6433 0.0221055 16.0332C0.0221055 16.2173 -0.0276319 17.5985 0.0221055 16.8525C0.120468 15.377 0.322605 14.4423 0.0221055 12.6393" stroke="rgb(0,173,181)" stroke-opacity="0.5" stroke-linecap="round" stroke-linejoin="round" stroke-width="2" transform="matrix(0.895132,-0.445801,0.445801,0.895132,404.315,207.769)" />
		</g>
		<g id="javascript init">
			<path id="Vector 148" d="M0 0C8.27689 1.47679 34.0599 1.68732 31.4813 15.7407C30.9437 18.6705 30.2641 21.3185 27.3852 22.5285C24.3705 23.7955 21.7513 24.835 18.4324 24.752C14.3551 24.6501 12.5488 22.8992 10.9424 19.4857C10.379 18.2885 12.812 20.9457 13.049 21.1826C14.608 22.7416 12.9246 17.7011 12.6393 15.7992" stroke="rgb(0,173,181)" stroke-opacity="0.5" stroke-linecap="round" stroke-linejoin="round" stroke-width="2" transform="matrix(0.0691034,0.997609,-0.997609,0.0691034,244.833,251.734)" />
			<path id="Vector 149" d="M0 0C0.173749 7.21058 0.831891 17.4167 9.71357 19.1931C14.5313 20.1566 15.623 12.9702 17.4961 9.94763C20.7142 4.75479 30.275 1.30751 33.939 7.63627C36.487 12.0373 34.7582 15.1128 34.7582 19.2223C34.7582 23.3966 33.4275 20.3981 33.1783 17.9057" stroke="rgb(0,173,181)" stroke-opacity="0.5" stroke-linecap="round" stroke-linejoin="round" stroke-width="2" transform="matrix(0.0691034,0.997609,-0.997609,0.0691034,263.06,255.75)" />
		</g>
		<g id="html">
			<path id="Vector 143" d="M0 0C0.82574 5.73672 1.88396 11.4768 2.57468 17.2328C2.64114 17.7866 2.63664 20.0388 2.838 18.1691C2.98523 16.8019 2.51441 15.5316 2.95503 14.1607C3.56193 12.2726 6.59104 4.90293 8.89435 5.00307C13.5107 5.20378 11.1408 14.2604 10.4743 16.8525C10.2444 17.7465 9.50974 19.744 10.328 20.4804C11.4188 21.4622 11.8196 16.738 11.8494 16.5891" stroke="rgb(0,173,181)" stroke-opacity="0.5" stroke-linecap="round" stroke-linejoin="round" stroke-width="2" transform="matrix(0.970762,0.240046,-0.240046,0.970762,301.973,34.5733)" />
			<path id="Vector 144" d="M0.0713611 0C0.179975 2.62741 -1.05133 16.033 3.58229 17.0573C4.88993 17.3463 7.19757 15.6197 7.76615 14.4826C8.3582 13.2985 7.5519 11.9088 7.18099 10.7961" stroke="rgb(0,173,181)" stroke-opacity="0.5" stroke-linecap="round" stroke-linejoin="round" stroke-width="2" transform="matrix(0.970762,0.240046,-0.240046,0.970762,319.412,38.3432)" />
			<path id="Vector 145" d="M0 0C4.86212 0.226899 9.74146 -0.0280821 14.585 0.248691C15.7284 0.314029 16.1633 0.36416 16.9695 1.17031C18.2235 2.42428 15.5276 1.66219 15.0092 1.3166" stroke="rgb(0,173,181)" stroke-opacity="0.5" stroke-linecap="round" stroke-linejoin="round" stroke-width="2" transform="matrix(0.970762,0.240046,-0.240046,0.970762,310.733,38.6382)" />
			<path id="Vector 146" d="M1.54143 0.789959C1.27781 4.18532 1.0864 7.60468 0.663698 10.9863C0.579652 11.6586 0.599578 11.892 0.356492 11.4544C0.122347 11.0329 -0.0626 10.7962 0.0200278 10.2695C0.459118 7.47027 2.04642 3.21074 4.04297 1.2142C6.19903 -0.941864 6.0865 4.53727 6.00323 5.66137C5.90972 6.92383 5.67142 10.3796 6.07638 6.9926C6.31739 4.9769 6.78435 0 9.64582 0C11.3787 0 11.5476 2.30127 11.5476 3.54019C11.5476 5.82489 11.5476 8.09423 11.5476 10.3865C11.5476 13.7362 11.5476 11.9273 11.5476 9.47951" stroke="rgb(0,173,181)" stroke-opacity="0.5" stroke-linecap="round" stroke-linejoin="round" stroke-width="2" transform="matrix(0.970762,0.240046,-0.240046,0.970762,330.524,46.516)" />
			<path id="Vector 147" d="M0.67748 0C0.497651 6.25407 -0.0556329 12.5827 0.00455242 18.842C0.0116107 19.576 0.287699 22.2324 1.46744 22.2651C2.58844 22.2963 6.11631 18.7819 4.89059 18.1691" stroke="rgb(0,173,181)" stroke-opacity="0.5" stroke-linecap="round" stroke-linejoin="round" stroke-width="2" transform="matrix(0.970762,0.240046,-0.240046,0.970762,351.912,40.412)" />
		</g>
		<g id="react">
			<path id="Vector 153" d="M4.74591 0C4.47213 8.50423 4.21266 17.0089 3.92669 25.5127C3.84519 27.9364 4.70198 34.8145 3.40005 32.7687C1.63456 29.9943 1.4308 25.0082 0.85463 21.8848C0.0414691 17.4766 -1.54218 8.64916 3.92669 6.02709C8.05488 4.04783 15.6183 7.83676 18.0874 11.2935C19.8309 13.7344 19.6823 10.0935 21.0717 8.42623" stroke="rgb(0,173,181)" stroke-opacity="0.5" stroke-linecap="round" stroke-linejoin="round" stroke-width="2" transform="matrix(0.899425,0.437075,-0.437075,0.899425,58.1587,284.385)" />
			<path id="Vector 154" d="M1.64297 3.58969C6.74555 7.99646 14.8535 15.6987 19.6072 6.98358C21.7915 2.97909 18.151 -0.28864 14.2238 0.0202413C4.59941 0.777215 -1.28274 14.5826 0.238594 22.8413C1.75962 31.0983 10.8004 29.4634 16.6229 27.5225C19.8448 26.4486 17.9075 24.1899 20.0753 22.0221" stroke="rgb(0,173,181)" stroke-opacity="0.5" stroke-linecap="round" stroke-linejoin="round" stroke-width="2" transform="matrix(0.899425,0.437075,-0.437075,0.899425,74.8035,306.634)" />
			<path id="Vector 155" d="M16.6577 1.27085C9.10406 1.70003 -0.350874 3.4052 0.010026 13.1495C0.183979 17.8462 8.0379 14.5903 10.2502 13.3836C14.4758 11.0787 19.2404 -3.61101 17.3891 0.831982C15.7646 4.73081 14.3261 9.09995 14.9607 13.3836C15.3706 16.1502 18.815 21.0293 19.8175 16.0168" stroke="rgb(0,173,181)" stroke-opacity="0.5" stroke-linecap="round" stroke-linejoin="round" stroke-width="2" transform="matrix(0.899425,0.437075,-0.437075,0.899425,82.668,323.573)" />
			<path id="Vector 156" d="M17.7156 0C9.02653 5.30318 -1.55243 11.0098 0.190206 22.821C1.04687 28.6273 6.47717 30.3155 11.6885 29.6088C15.3302 29.115 17.4423 25.3187 18.2422 22.1189" stroke="rgb(0,173,181)" stroke-opacity="0.5" stroke-linecap="round" stroke-linejoin="round" stroke-width="2" transform="matrix(0.899425,0.437075,-0.437075,0.899425,108.31,329.836)" />
			<path id="Vector 157" d="M4.82124 0C4.61687 0.850418 -5.94283 36.2292 4.85049 31.218C7.8389 29.8305 10.0421 26.6288 11.1409 23.6988" stroke="rgb(0,173,181)" stroke-opacity="0.5" stroke-linecap="round" stroke-linejoin="round" stroke-width="2" transform="matrix(0.899425,0.437075,-0.437075,0.899425,129.111,337.016)" />
			<path id="Vector 158" d="M0 0C5.75516 0.878298 11.5344 1.96027 17.3791 1.96027C18.897 1.96027 21.0819 1.25067 22.5285 2.0773C23.3411 2.54168 21.7919 1.25299 21.5922 1.05328" stroke="rgb(0,173,181)" stroke-opacity="0.5" stroke-linecap="round" stroke-linejoin="round" stroke-width="2" transform="matrix(0.899425,0.437075,-0.437075,0.899425,112.305,344.073)" />
		</g>
		<g id="node">
			<path id="Vector 169" d="M0.0037111 2.65618C0.568707 10.6038 3.14867 34.2496 1.17402 26.5305C-0.0881586 21.5965 -0.0762709 15.8804 0.0622266 10.8483C0.207562 5.56783 2.13895 -3.03021 9.48322 1.07626C15.7866 4.60076 15.1115 12.4798 13.5793 18.4554C12.9033 21.0917 12.1164 23.0102 12.1164 25.7113C12.1164 28.4731 16.3979 19.9441 17.9094 17.9287" stroke="rgb(0,173,181)" stroke-opacity="0.5" stroke-linecap="round" stroke-linejoin="round" stroke-width="2" transform="matrix(0.896876,-0.442283,0.442283,0.896876,57.6702,123.874)" />
			<path id="Vector 170" d="M3.80922 0C3.55017 1.0325 -3.8514 23.9022 2.69743 22.0311C5.45479 21.2433 7.97327 17.1919 9.3682 14.98C13.7283 8.06613 11.0925 5.64688 6.735 1.57992C4.65617 -0.360321 4.13936 -0.573744 2.22931 1.60918C-1.6931 6.09193 1.19256 5.7119 5.38914 4.21312" stroke="rgb(0,173,181)" stroke-opacity="0.5" stroke-linecap="round" stroke-linejoin="round" stroke-width="2" transform="matrix(0.896876,-0.442283,0.442283,0.896876,81.4161,113.952)" />
			<path id="Vector 171" d="M11.0952 11.8453C6.49102 14.8427 0.826603 18.2463 0.035799 24.3091C-0.292211 26.8238 1.69512 27.0968 3.48821 26.4742C6.31779 25.4917 8.85156 22.8329 10.0419 20.1545C12.324 15.0198 11.2946 9.1555 9.74937 3.94572C9.53512 3.22338 7.05439 -2.28367 6.41399 1.07846C5.26368 7.11756 6.83497 14.2468 7.40875 20.2715C8.35443 30.2012 11.2534 27.9559 16.8883 21.8515" stroke="rgb(0,173,181)" stroke-opacity="0.5" stroke-linecap="round" stroke-linejoin="round" stroke-width="2" transform="matrix(0.896876,-0.442283,0.442283,0.896876,91.5833,99.8407)" />
			<path id="Vector 172" d="M0 0C0.842883 2.22466 8.81927 17.0929 13.049 9.47951C13.4327 8.78876 12.6393 8.12286 12.6393 7.37295C12.6393 5.44061 11.8751 3.78926 11.5861 2.6332" stroke="rgb(0,173,181)" stroke-opacity="0.5" stroke-linecap="round" stroke-linejoin="round" stroke-width="2" transform="matrix(0.896876,-0.442283,0.442283,0.896876,116.893,107.026)" />
			<path id="Vector 173" d="M2.01916 21.8912C0.300724 13.0842 -3.22747 3.06866 6.87595 0.181972C11.1331 -1.03434 16.1964 4.08443 13.8393 8.46191C12.7415 10.5008 9.77276 15.417 6.52486 14.489C4.80741 13.9983 4.59011 12.608 6.75892 11.8851" stroke="rgb(0,173,181)" stroke-opacity="0.5" stroke-linecap="round" stroke-linejoin="round" stroke-width="2" transform="matrix(0.896876,-0.442283,0.442283,0.896876,106.545,94.1799)" />
			<path id="Vector 174" d="M0 0C2.16283 3.56016 18.0796 27.9119 3.45241 27.9119C1.17283 27.9119 0.598678 25.0087 0.292577 23.1721C-0.397503 19.0316 8.14242 17.8521 10.0061 14.7459" stroke="rgb(0,173,181)" stroke-opacity="0.5" stroke-linecap="round" stroke-linejoin="round" stroke-width="2" transform="matrix(0.896876,-0.442283,0.442283,0.896876,130.448,83.3129)" />
			<path id="Vector 175" d="M12.314 0C9.74071 0.593829 -5.37314 4.71075 2.01525 10.5913C6.09626 13.8395 12.6632 11.415 17.2585 10.8546C24.6615 9.95181 22.3673 17.5826 18.8677 20.8023C16.7244 22.7741 4.93019 26.8694 10.2074 21.5922" stroke="rgb(0,173,181)" stroke-opacity="0.5" stroke-linecap="round" stroke-linejoin="round" stroke-width="2" transform="matrix(0.896876,-0.442283,0.442283,0.896876,139.96,76.8605)" />
		</g>
		<g id="css">
			<path id="Vector 150" d="M220.261 457.65C212.455 461.578 202.226 468.742 210.665 478.247C214.713 482.807 222.186 480.939 227.517 480.412C229.015 480.264 233.148 481.705 232.023 480.705C229.589 478.542 227.838 478.681 227.108 475.029" stroke="rgb(0,173,181)" stroke-opacity="0.5" stroke-linecap="round" stroke-linejoin="round" stroke-width="2" />
			<path id="Vector 151" d="M243.434 455.016C243.434 460.771 243.38 464.891 249.285 467.129C251.835 468.096 253.436 468.983 254.113 471.84C254.878 475.069 252.625 479.747 249.958 481.553C246.661 483.786 242.52 484.565 238.811 483.045C235.634 481.743 239.146 480.204 240.8 478.715" stroke="rgb(0,173,181)" stroke-opacity="0.5" stroke-linecap="round" stroke-linejoin="round" stroke-width="2" />
			<path id="Vector 152" d="M269.239 448.697C268.203 452.71 263.534 463.443 267.688 467.597C269.365 469.274 272.612 468.343 274.68 468.826C276.738 469.307 278.503 470.882 279.771 472.513C281.779 475.094 279.868 479.006 277.548 480.822C273.948 483.639 268.806 482.402 264.616 482.402C262.328 482.402 263.891 482.24 265.025 480.822" stroke="rgb(0,173,181)" stroke-opacity="0.5" stroke-linecap="round" stroke-linejoin="round" stroke-width="2" />
		</g>
		<g id="expres">
			<path id="Vector 176" d="M260.16 398.752C264.217 397.204 271.742 394.74 275.666 391.964C279.809 389.034 275.472 388.192 273.267 388.892C269.533 390.079 267.277 393.99 266.011 397.436C262.679 406.507 273.279 416.761 282.191 415.722C290.426 414.761 291.575 410.729 292.811 404.545" stroke="rgb(0,173,181)" stroke-opacity="0.5" stroke-linecap="round" stroke-linejoin="round" stroke-width="2" />
			<path id="Vector 177" d="M298.078 394.012C297.155 395.515 288.39 413.561 285.965 405.072" stroke="rgb(0,173,181)" stroke-opacity="0.5" stroke-linecap="round" stroke-linejoin="round" stroke-width="2" />
			<path id="Vector 178" d="M281.752 394.539C285.45 399.482 294.384 417.156 303.344 416.658C304.644 416.586 302.92 411.583 302.818 410.865" stroke="rgb(0,173,181)" stroke-opacity="0.5" stroke-linecap="round" stroke-linejoin="round" stroke-width="2" />
			<path id="Vector 179" d="M305.977 394.539C308.02 406.506 312.112 442.674 309.781 430.76C308.579 424.617 297.603 391.374 307.265 392.754C311.455 393.353 322.151 399.466 319.348 405.072C317.772 408.224 308.005 409.324 312.297 407.178" stroke="rgb(0,173,181)" stroke-opacity="0.5" stroke-linecap="round" stroke-linejoin="round" stroke-width="2" />
			<path id="Vector 180" d="M325.99 402.965C327.291 409.736 328.543 416.502 329.676 423.299C329.87 424.463 329.61 423.504 329.267 422.861C327.113 418.821 324.163 411.623 324.264 407.091C324.359 402.797 330.266 399.869 333.363 402.965" stroke="rgb(0,173,181)" stroke-opacity="0.5" stroke-linecap="round" stroke-linejoin="round" stroke-width="2" />
			<path id="Vector 181" d="M342.843 410.865C342.706 415.821 346.301 433.172 354.838 428.127C356.061 427.404 359.079 425.638 359.168 424.031C359.216 423.174 357.657 422.978 357.062 422.978C355.497 422.978 355.106 421.037 354.429 419.818" stroke="rgb(0,173,181)" stroke-opacity="0.5" stroke-linecap="round" stroke-linejoin="round" stroke-width="2" />
			<path id="Vector 182" d="M340.209 412.445C344.822 407.673 350.01 401.099 354.107 409.607C355.306 412.098 354.888 415.099 353.902 417.594C352.308 421.625 346.601 423.215 348.109 417.185" stroke="rgb(0,173,181)" stroke-opacity="0.5" stroke-linecap="round" stroke-linejoin="round" stroke-width="2" />
			<path id="Vector 183" d="M368.648 402.965C372.257 408.733 386.855 424.281 377.279 431.375C374.215 433.644 372.215 433.634 368.765 433.51C363.894 433.336 366.468 432.102 368.121 428.244" stroke="rgb(0,173,181)" stroke-opacity="0.5" stroke-linecap="round" stroke-linejoin="round" stroke-width="2" />
			<path id="Vector 184" d="M390.766 400.859C389.676 402.178 375.594 415.792 384.154 417.243C387.309 417.778 390.209 415.867 393.107 417.799C398.336 421.285 397.097 426.01 392.288 428.975C389.884 430.458 387.202 431.235 384.681 432.457C383.256 433.148 384.774 431.147 384.973 430.351" stroke="rgb(0,173,181)" stroke-opacity="0.5" stroke-linecap="round" stroke-linejoin="round" stroke-width="2" />
			<path id="Vector 185" d="M378.654 395.066C377.431 395.964 364.264 403.271 366.132 407.705C368.487 413.299 369.266 406.413 369.701 404.019" stroke="rgb(0,173,181)" stroke-opacity="0.5" stroke-linecap="round" stroke-linejoin="round" stroke-width="2" />
		</g>
		<g id="macbook">
			<path id="Vector 3" d="M54.9711 222.793C57.3166 217.263 56.3559 212.444 56.3559 206.712C56.3559 205.597 56.1536 202.201 57.3254 201.593C59.1732 200.634 60.9001 199.994 63.0803 199.994C64.5298 199.994 65.9861 200.036 67.435 199.994C68.884 199.953 70.2877 199.363 71.7204 199.188C74.3861 198.861 77.1588 199.316 79.7912 199.316C81.8813 199.316 84.0435 199.587 86.0539 199.587C86.4108 199.587 87.866 199.757 88.1004 199.964C88.818 200.597 88.6125 201.612 89.1776 202.166" stroke="rgb(0,173,181)" stroke-opacity="0.5" stroke-linecap="round" stroke-linejoin="round" stroke-width="1" />
			<path id="Vector 4" d="M89.0397 202.656C89.1309 204.288 89.1651 206.578 89.8366 208.173C90.2717 209.206 89.9248 210.582 90.0128 211.683C90.1819 213.795 89.8672 215.855 89.8672 217.905C89.8672 220.654 90.0052 223.369 90.0052 226.104C90.0052 228.451 87.7117 228.058 85.8979 227.728C84.3311 227.443 82.2284 228.015 80.5953 228.035C77.4448 228.074 74.2796 228.311 71.1242 228.311C68.4889 228.311 66.5319 227.545 64.1051 226.625C62.8092 226.133 62.0259 226.242 60.6339 226.242C59.3155 226.242 58.2314 226.036 56.9098 226.449C56.1366 226.69 54.7519 226.482 54.3121 225.69C53.7848 224.741 54.8332 224.329 54.8332 223.552C54.8332 222.9 54.7512 221.034 54.9711 222.794" stroke="rgb(0,173,181)" stroke-opacity="0.5" stroke-linecap="round" stroke-linejoin="round" stroke-width="1" />
			<path id="Vector 6" d="M71.7987 207.07C72.3504 207.483 73.5118 207.277 74.4883 207.277C75.0022 207.277 75.5448 206.876 76.0055 206.671C76.9389 206.256 76.3822 207.037 76.1588 207.483C75.9115 207.978 76.1939 208.898 76.6416 209.208C77.3801 209.719 78.1108 209.277 78.8331 208.916C79.133 208.766 79.0506 208.697 79.1434 208.901C79.2693 209.178 79.2469 209.58 79.2469 209.882C79.2469 210.569 79.2017 211.712 78.8331 212.311C78.3481 213.099 77.8582 213.609 77.0783 214.188C76.3079 214.761 75.2901 215.759 74.2661 215.759C72.265 215.759 70.1411 215.323 69.1397 213.376C68.7153 212.551 67.9367 211.875 67.9367 210.932C67.9367 210.144 67.6762 209.201 67.9367 208.449C68.2524 207.537 69.0401 206.671 68.7643 206.671C68.9049 206.711 70.1435 205.966 70.6953 206.242C70.6953 206.242 71.247 206.518 71.7987 207.07Z" stroke="rgb(0,173,181)" stroke-opacity="0.5" stroke-linecap="round" stroke-linejoin="round" stroke-width="1" />
			<path id="Vector 7" d="M72.9711 205.759C73.7471 205.472 75.5195 204.87 75.9366 203.932C76.259 203.206 75.1934 203.07 74.6263 203.07C73.9385 203.07 73.1234 204.02 72.9405 204.621C72.8387 204.956 72.7421 205.298 72.6416 205.637C72.5932 205.8 72.6579 205.918 72.6914 206.07C72.717 206.185 73.7693 205.632 73.7297 205.474" stroke="rgb(0,173,181)" stroke-opacity="0.5" stroke-linecap="round" stroke-linejoin="round" stroke-width="1" />
			<path id="Vector 71" d="M86.9079 221.273C90.2723 221.199 93.0396 223.906 93.0396 227.272L93.0396 227.828C93.0396 231.142 90.3533 233.828 87.0396 233.828L56.5001 233.828C53.218 233.828 50.5574 231.167 50.5574 227.885C50.5574 224.654 53.1392 222.015 56.3697 221.944L86.9079 221.273Z" stroke="rgb(0,173,181)" stroke-opacity="0.5" stroke-width="1" />
			<path id="Vector 72" d="M63.0588 221.777C63.5169 222.487 63.9124 223.34 64.438 223.997C64.7024 224.327 64.66 224.26 65.1725 224.07C66.0281 223.753 66.9975 223.981 67.8901 223.981C68.6737 223.981 69.5849 223.571 70.3465 223.777C71.2289 224.014 72.2691 223.561 73.1375 223.54C74.184 223.515 75.1816 223.613 76.2224 223.613C76.8498 223.613 77.4615 223.246 78.0422 223.246C78.3792 223.246 79.3396 223.513 79.3643 222.895C79.3763 222.594 79.5112 222.302 79.5112 221.997C79.5112 221.586 79.2649 221.764 78.8502 221.557" stroke="rgb(0,173,181)" stroke-opacity="0.5" stroke-linecap="round" stroke-linejoin="round" stroke-width="1" />
		</g>
		<path id="Vector 67" d="M212.48 71.0062C213.046 70.2862 214.131 68.9538 212.611 68.7182C212.267 68.6649 211.945 68.4628 211.608 68.6158C210.568 69.0869 209.602 70.1242 209.602 71.3575C209.602 73.3274 211.763 73.7539 213.332 73.7284C215.98 73.6854 216.786 71.1056 217.721 69.0158C218.666 66.9049 219.715 64.8281 220.695 62.7323C221.804 60.3608 223.623 58.4717 224.774 56.1219C225.267 55.1143 225.911 54.227 226.547 53.307C227.532 51.8799 228.235 50.4402 228.94 48.8578C229.518 47.5596 230.159 46.3741 230.867 45.1453C231.154 44.6484 231.046 43.8871 231.594 44.4184C232.01 44.8217 232.672 45.0867 233.231 45.1892C235.678 45.6373 237.929 46.1116 240.449 45.9112C242.998 45.7085 245.545 45.3434 248.054 44.8574C248.907 44.6922 248.543 44.8911 248.141 45.4087C247.459 46.2866 246.876 47.217 246.223 48.1065C245.371 49.2666 245.071 50.6636 244.566 51.9898C244.012 53.4477 243.352 54.8402 242.822 56.3219C241.799 59.1856 240.306 61.7972 238.458 64.2007C237.387 65.5936 236.065 68.0264 234.06 67.9279C230.957 67.7755 233.052 61.6678 234.534 60.4735C235.332 59.8306 236.205 60.5228 236.302 61.3858C236.436 62.5717 236.029 64.1967 234.878 64.7764C233.664 65.388 232.733 65.3146 233.667 63.7373C234.233 62.7829 234.569 63.8332 234.801 63.3665" stroke="rgb(0,173,181)" stroke-opacity="0.5" stroke-linecap="round" stroke-linejoin="round" stroke-width="2" />
		<path id="Vector 187" d="M446.308 283.769C446.874 283.048 447.959 281.716 446.439 281.481C446.095 281.427 445.773 281.225 445.436 281.378C444.396 281.849 443.431 282.887 443.431 284.12C443.431 286.09 445.591 286.516 447.16 286.491C449.808 286.448 450.614 283.868 451.549 281.778C452.494 279.667 453.543 277.59 454.523 275.495C455.632 273.123 457.451 271.234 458.602 268.884C459.095 267.877 459.74 266.989 460.375 266.069C461.36 264.642 462.063 263.202 462.768 261.62C463.346 260.322 463.987 259.136 464.696 257.908C464.982 257.411 464.874 256.649 465.422 257.181C465.838 257.584 466.5 257.849 467.059 257.951C469.507 258.4 471.757 258.874 474.277 258.673C476.826 258.471 479.373 258.106 481.882 257.62C482.735 257.455 482.371 257.653 481.969 258.171C481.287 259.049 480.705 259.979 480.051 260.869C479.199 262.029 478.899 263.426 478.394 264.752C477.84 266.21 477.18 267.602 476.651 269.084C475.627 271.948 474.134 274.56 472.286 276.963C471.215 278.356 469.893 280.789 467.888 280.69C464.785 280.538 466.88 274.43 468.363 273.236C469.16 272.593 470.033 273.285 470.131 274.148C470.264 275.334 469.858 276.959 468.706 277.539C467.492 278.15 466.561 278.077 467.495 276.5C468.061 275.545 468.397 276.596 468.629 276.129" stroke="rgb(0,173,181)" stroke-opacity="0.5" stroke-linecap="round" stroke-linejoin="round" stroke-width="2" />
		<g id="lightbulb">
			<path id="Vector 55" d="M0.0831728 35.4178C2.67897 30.7129 2.52581 29.3688 1.93383 24.633C1.60784 22.025 1.48318 19.477 0.823435 16.9113C-0.356372 12.3232 -0.739282 6.14482 2.95488 2.45066C10.2239 -4.81832 23.7606 5.51941 19.6618 14.7416C18.1019 18.2514 15.4064 20.8501 13.4589 24.1608C12.6779 25.4885 12.2405 26.9277 11.2254 28.1684C10.2519 29.3582 9.0429 30.839 9.0429 32.3164C9.0429 33.5644 9.41497 35.1825 8.53237 36.2857C7.31312 37.8098 7.74655 37.026 5.94145 37.026C4.70059 37.026 2.87072 36.0397 1.87001 35.2392C1.15555 34.6676 0.772382 36.3207 0.772382 34.7286C0.772382 33.362 1.21229 34.4989 0.312909 34.4989" stroke="rgb(0,173,181)" stroke-opacity="0.5" stroke-linecap="round" stroke-linejoin="round" stroke-width="1" transform="matrix(-1,0,0,1,421.389,124.247)" />
			<path id="Vector 56" d="M10.1084 1.32039C7.65156 0.587918 0.85103 -1.04788 2.425 0.975789C4.32404 3.41742 5.13621 2.19375 7.46643 2.71158C8.65808 2.97639 9.81991 6.65434 8.50025 6.73196C6.61547 6.84283 5.36564 4.30697 3.44605 4.30697C1.6989 4.30697 1.82404 6.60632 2.8717 7.42117C4.25518 8.49721 5.84611 7.34056 6.77722 9.01657C8.24863 11.6651 4.22942 11.2342 3.08868 10.612C1.93941 9.98508 0.846011 9.00623 0 8.44222" stroke="rgb(0,173,181)" stroke-opacity="0.5" stroke-linecap="round" stroke-linejoin="round" stroke-width="1" transform="matrix(-1,0,0,1,425.67,162.709)" />
			<path id="Vector 57" d="M0 0C0.0312561 0.200039 0.0637768 1.55072 0.603058 1.55072C0.893426 1.55072 1.02699 1.37463 1.29227 1.522C1.60426 1.69533 1.89687 2.10332 2.19526 2.34204C2.45824 2.55242 3.23871 2.52642 3.38861 2.78875C3.63352 3.21734 4.1307 3.45192 4.59473 3.50348C5.19638 3.57033 5.41889 3.87234 6.0593 3.73003C6.25505 3.68653 6.2748 3.56092 6.45815 3.56092C6.74124 3.56092 6.86342 3.6963 7.07716 3.45881C7.31373 3.19596 7.70024 3.07286 7.81423 2.67388C7.96922 2.13142 8.53741 1.846 7.69617 2.1825" stroke="rgb(0,173,181)" stroke-opacity="0.5" stroke-linecap="round" stroke-linejoin="round" stroke-width="1" transform="matrix(-1,0,0,1,421.306,158.918)" />
			<path id="Vector 58" d="M5.70638 0C4.67879 0.00555455 3.82946 0.0717715 3.47921 1.16145C3.2409 1.90287 3.23671 2.63147 3.23671 3.40138C3.23671 4.14989 3.69619 4.75168 3.69619 5.45624C3.69619 6.3876 2.95136 6.23509 2.32096 6.51877C1.72547 6.78674 1.29402 7.01059 0.971256 7.61002C0.651611 8.20365 0.893138 9.35144 0.936157 9.99673C0.973175 10.552 1.23726 11.7321 0.853197 12.2016C0.644492 12.4566 -0.495908 12.8504 0.250139 12.2909" stroke="rgb(0,173,181)" stroke-opacity="0.5" stroke-linecap="round" stroke-linejoin="round" stroke-width="1" transform="matrix(-1,0,0,1,415.927,136.174)" />
			<path id="Vector 59" d="M0 0C0.822852 0.54669 1.66145 1.00474 2.58134 1.3497C2.96703 1.49434 3.47486 1.75241 3.38861 1.14868" stroke="rgb(0,173,181)" stroke-opacity="0.5" stroke-linecap="round" stroke-linejoin="round" stroke-width="1" transform="matrix(-1,0,0,1,401.548,146.569)" />
			<path id="Vector 60" d="M0 0C1.45825 0.351061 2.90664 0.746722 4.35223 1.13592C4.59267 1.20065 4.04085 0.592757 4.02039 0.574341" stroke="rgb(0,173,181)" stroke-opacity="0.5" stroke-linecap="round" stroke-linejoin="round" stroke-width="1" transform="matrix(-1,0,0,1,398.562,138.643)" />
			<path id="Vector 61" d="M0 1.37842C1.51016 1.15892 3.01578 0.886557 4.51815 0.619012C5.20981 0.495839 5.50265 0.586527 5.11164 0" stroke="rgb(0,173,181)" stroke-opacity="0.5" stroke-linecap="round" stroke-linejoin="round" stroke-width="1" transform="matrix(-1,0,0,1,398.16,129.741)" />
			<path id="Vector 62" d="M0 2.29736C1.19312 2.08769 2.22735 1.88566 3.30565 1.34651C3.81039 1.09414 4.29634 0.790811 4.82447 0.587104C5.45205 0.345035 5.46492 0.418734 4.76703 0" stroke="rgb(0,173,181)" stroke-opacity="0.5" stroke-linecap="round" stroke-linejoin="round" stroke-width="1" transform="matrix(-1,0,0,1,406.315,120.839)" />
			<path id="Vector 63" d="M0.0893785 0C-0.0847611 1.21898 -0.0271978 1.94906 0.465891 3.05358C0.731712 3.64902 0.956568 4.40161 1.08809 5.04463C1.13339 5.26607 1.15865 5.39211 1.30826 5.55835C1.36426 5.62057 1.15876 4.88085 1.12319 4.76703" stroke="rgb(0,173,181)" stroke-opacity="0.5" stroke-linecap="round" stroke-linejoin="round" stroke-width="1" transform="matrix(-1,0,0,1,416.801,117.967)" />
			<path id="Vector 64" d="M0 0C0.381278 1.26943 0.924732 2.48713 1.25079 3.75874C1.41575 4.40208 1.31262 4.44119 1.03381 3.79065" stroke="rgb(0,173,181)" stroke-opacity="0.5" stroke-linecap="round" stroke-linejoin="round" stroke-width="1" transform="matrix(-1,0,0,1,425.499,122.849)" />
			<path id="Vector 65" d="M0 0C1.3049 1.12939 2.37505 2.53131 3.38861 3.91828C3.51563 4.0921 3.66249 4.15387 3.80341 4.2948C4.12356 4.61494 3.5709 3.89178 3.50348 3.79065" stroke="rgb(0,173,181)" stroke-opacity="0.5" stroke-linecap="round" stroke-linejoin="round" stroke-width="1" transform="matrix(-1,0,0,1,429.174,131.981)" />
		</g>
		<g id="apis">
			<path id="Vector 188" d="M136.734 247.189C138.643 255.791 140.794 264.412 142.057 273.144C142.762 278.022 141.213 270.983 141.021 269.988C140.604 267.834 140.126 265.926 140.126 263.723C140.126 259.29 140.007 254.807 139.678 250.369C139.448 247.262 135.632 238.011 140.455 245.729C145.374 253.598 148.846 262.299 152.185 270.883C152.645 272.066 153.282 273.187 153.786 274.322C154.062 274.942 148.899 269.896 146.909 268.811" stroke="rgb(0,173,181)" stroke-opacity="0.5" stroke-linecap="round" stroke-linejoin="round" stroke-width="2" />
			<path id="Vector 189" d="M133.766 266.267C139.278 264.067 151.431 259.919 154.964 253.737C156.444 251.147 156.155 252.344 151.996 253.124" stroke="rgb(0,173,181)" stroke-opacity="0.5" stroke-linecap="round" stroke-linejoin="round" stroke-width="2" />
			<path id="Vector 190" d="M150.301 237.438C154.554 245.858 157.635 254.824 158.803 264.171C158.911 265.037 159.112 265.987 159.722 266.597C159.835 266.71 157.682 262.679 157.084 261.603" stroke="rgb(0,173,181)" stroke-opacity="0.5" stroke-linecap="round" stroke-linejoin="round" stroke-width="2" />
			<path id="Vector 191" d="M150.301 237.014C153.599 238.99 165.713 246.287 157.814 250.934C157.121 251.342 156.308 251.718 155.812 252.371C154.762 253.752 154.636 254.157 155.388 252.276" stroke="rgb(0,173,181)" stroke-opacity="0.5" stroke-linecap="round" stroke-linejoin="round" stroke-width="2" />
			<path id="Vector 192" d="M161.323 232.775C162.728 242.293 165.139 252.752 165.139 262.451C165.139 264.592 164.781 260.627 164.291 259.484" stroke="rgb(0,173,181)" stroke-opacity="0.5" stroke-linecap="round" stroke-linejoin="round" stroke-width="2" />
			<path id="Vector 193" d="M171.074 249.733C173.402 256.671 174.598 260.76 167.777 262.781C165.446 263.472 168.262 260.086 168.86 259.672C170.901 258.259 172.933 253.711 170.65 251.428C169.742 250.52 167.568 251.667 166.929 250.581C165.986 248.979 168.098 245.945 169.378 245.163C173.059 242.914 172.596 246.084 171.074 245.069" stroke="rgb(0,173,181)" stroke-opacity="0.5" stroke-linecap="round" stroke-linejoin="round" stroke-width="2" />
		</g>
		<g id="aws">
			<path id="Vector 194" d="M298.425 120.985C299.831 128.379 305.616 149.97 302.25 143.238C301.888 142.513 301.585 141.898 301.555 141.075C301.442 138.03 301.215 134.847 300.164 131.957C299.285 129.54 299.469 127.034 299.469 124.462C299.469 123.947 298.593 119.892 298.677 119.865C299.562 119.57 303.213 124.006 303.873 124.771C307.211 128.639 310.586 133.084 312.971 137.617C314.199 139.95 314.569 140.786 311.638 141.152" stroke="rgb(0,173,181)" stroke-opacity="0.5" stroke-linecap="round" stroke-linejoin="round" stroke-width="2" />
			<path id="Vector 195" d="M298.078 135.936C301.341 134.281 304.449 132.958 307.814 131.764" stroke="rgb(0,173,181)" stroke-opacity="0.5" stroke-linecap="round" stroke-linejoin="round" stroke-width="2" />
			<path id="Vector 196" d="M307.466 121.333C310.807 126.337 313.989 131.663 317.878 136.284C318.433 136.943 319.597 138.141 319.597 136.593C319.597 134.482 318.428 132.3 317.897 130.296C317.049 127.09 316.259 123.869 315.541 120.637C314.847 117.517 315.336 118.682 316.507 121.024C318.447 124.904 320.489 128.438 323.19 131.88C325.01 134.199 325.199 132.908 325.199 130.875C325.199 127.184 323.397 124.148 322.07 120.83C320.652 117.286 320.747 112.448 319.134 109.221C318.506 107.966 318.419 111.943 318.245 113.335" stroke="rgb(0,173,181)" stroke-opacity="0.5" stroke-linecap="round" stroke-linejoin="round" stroke-width="2" />
			<path id="Vector 197" d="M326.242 108.815C326.331 109.224 327.626 119.347 329.913 118.203C330.915 117.702 331.16 116.169 332.192 115.653C333.864 114.818 335.671 116.298 336.326 117.74C338.059 121.552 336.064 125.967 332.926 128.287C328.579 131.5 330.067 125.716 330.067 124.114" stroke="rgb(0,173,181)" stroke-opacity="0.5" stroke-linecap="round" stroke-linejoin="round" stroke-width="2" />
			<path id="Vector 198" d="M328.329 108.12C327.703 109.83 326.565 117.768 326.223 114.688C326.012 112.786 326.387 111.34 326.59 109.511C327.072 105.172 330.392 108.662 329.024 106.381" stroke="rgb(0,173,181)" stroke-opacity="0.5" stroke-linecap="round" stroke-linejoin="round" stroke-width="2" />
		</g>
		<g id="goland">
			<path id="Vector 199" d="M305.14 336.508C305.024 336.295 300.008 327.657 300.442 327.408C301.044 327.064 302.167 327.399 302.876 327.133C304.969 326.348 306.655 324.728 308.378 323.388C310.19 321.978 312.672 333.036 313.224 335.365C313.891 338.183 315.629 341.929 312.377 343.555C309.446 345.021 305.589 344.578 302.389 344.507C297.168 344.391 293.56 335.821 292.951 331.556C292.507 328.451 288.207 318.483 292.824 316.489C294.06 315.955 296.16 316.32 297.501 316.32C299.419 316.32 301.094 315.177 303.045 315.177C306.149 315.177 307.088 319.055 304.378 314.796" stroke="rgb(0,173,181)" stroke-opacity="0.5" stroke-linecap="round" stroke-linejoin="round" stroke-width="2" />
			<path id="Vector 200" d="M313.901 317.843C314.442 319.815 316.183 330.762 320.757 327.959C321.628 327.425 322.261 326.132 322.577 325.208C323.42 322.743 323.597 320.683 321.709 318.796C320.295 317.381 317.564 314.494 315.509 314.415C310.413 314.219 314.909 319.927 314.282 318.986" stroke="rgb(0,173,181)" stroke-opacity="0.5" stroke-linecap="round" stroke-linejoin="round" stroke-width="2" />
			<path id="Vector 201" d="M314.663 300.321C318.425 306.27 324.102 312.812 326.386 319.663C326.677 320.537 326.688 321.131 327.233 321.949C328.055 323.182 328.444 324.972 329.222 323.091C330.349 320.368 332.917 317.951 334.936 315.854C337.426 313.268 337.767 314.034 333.327 314.034" stroke="rgb(0,173,181)" stroke-opacity="0.5" stroke-linecap="round" stroke-linejoin="round" stroke-width="2" />
			<path id="Vector 202" d="M340.946 298.417C340.473 299.484 333.297 313.685 340.226 310.458C341.605 309.816 343.011 308.817 342.829 307.178C342.653 305.598 341.334 304.356 340.649 302.988C340.263 302.214 338.717 298.489 339.253 299.559C340.844 302.741 342.98 308.408 345.347 310.775C348.105 313.533 349.757 310.635 347.04 309.082" stroke="rgb(0,173,181)" stroke-opacity="0.5" stroke-linecap="round" stroke-linejoin="round" stroke-width="2" />
			<path id="Vector 203" d="M345.136 299.94C355.738 316.758 342.322 297.888 345.411 294.586C348.4 291.391 351.931 297.527 353.05 299.475C354.999 302.868 356.918 311.671 353.897 302.607" stroke="rgb(0,173,181)" stroke-opacity="0.5" stroke-linecap="round" stroke-linejoin="round" stroke-width="2" />
			<path id="Vector 204" d="M358.468 285.466C358.288 286.101 352.601 302.105 356.859 300.618C358.669 299.986 360.486 298.555 361.451 296.914C362.565 295.02 363.084 292.423 362.277 290.333C361.726 288.908 361.131 287.386 360.372 286.058C358.569 282.903 363.428 292.652 364.88 295.983C367.006 300.86 372.128 317.959 360.055 314.563C354.789 313.082 359.748 304.892 359.229 304.892" stroke="rgb(0,173,181)" stroke-opacity="0.5" stroke-linecap="round" stroke-linejoin="round" stroke-width="2" />
		</g>
		<g id="gutiar">
			<path id="Vector 205" d="M208.549 206.765C210.442 206.245 212.056 205.721 213.387 204.223C213.912 203.633 213.983 202.879 214.251 202.164C214.6 201.235 214.166 200.046 213.868 199.154C213.631 198.441 214.93 198.041 215.394 198.011C216.191 197.96 216.801 198.467 217.567 198.512C218.488 198.566 219.47 198.861 220.109 199.58C220.542 200.067 221.123 200.182 221.602 200.605C222.057 201.006 222.416 201.706 222.745 202.22C223.697 203.707 223.966 205.442 224.243 207.143C224.375 207.959 224.456 208.846 224.318 209.67C224.154 210.654 224.329 211.6 223.94 212.543C223.672 213.194 223.243 214.057 222.632 214.442C222.005 214.837 221.422 214.979 221.262 215.798C220.927 217.508 221.786 219.183 221.455 220.909C221.162 222.442 219.136 222.676 217.884 222.922C217.019 223.091 215.448 223.356 214.615 222.903C213.063 222.059 211.939 221.005 210.788 219.662C209.769 218.472 209.383 216.733 209.248 215.212C209.111 213.659 209.109 211.973 209.144 210.403C209.167 209.361 209.471 208.314 209.569 207.275C209.65 206.425 209.92 206.357 209.484 207.445" stroke="rgb(0,173,181)" stroke-opacity="0.5" stroke-linecap="round" stroke-linejoin="round" stroke-width="1" />
			<path id="Vector 206" d="M219.519 199.027C220.158 197.378 220.862 195.73 221.352 194.029C221.572 193.265 221.625 192.455 221.9 191.709C222.219 190.842 222.377 189.862 222.514 188.955C222.612 188.305 222.66 187.154 223.255 186.744C223.69 186.445 223.938 185.762 224.403 185.402C225.001 184.941 225.851 184.512 226.274 183.896C226.69 183.29 227.134 182.04 226.784 181.34C226.59 180.951 226.617 180.532 226.425 180.149C226.176 179.651 225.953 179.247 225.764 178.708C225.599 178.237 225.081 177.296 225.684 176.96C227.16 176.141 227.262 177.431 227.72 178.609C227.956 179.218 227.992 179.961 228.211 180.593C228.361 181.026 228.627 180.713 228.83 180.962C229.136 181.336 229.151 181.804 229.383 182.209C229.729 182.815 229.322 184.044 229.146 184.637C228.821 185.735 228.486 186.729 228.003 187.783C226.76 190.499 224.734 192.786 223.345 195.418C222.817 196.419 222.393 197.428 222.136 198.536C221.989 199.165 221.56 199.765 221.56 200.43C221.56 201.037 221.409 201.348 221.73 200.387" stroke="rgb(0,173,181)" stroke-opacity="0.5" stroke-linecap="round" stroke-linejoin="round" stroke-width="1" />
			<path id="Vector 207" d="M226.151 178.534C225.068 178.7 223.887 178.763 222.92 179.247C222.787 179.313 222.993 179.14 223.09 179.129C224.386 178.976 225.802 177.82 226.983 177.258C227.861 176.84 229.062 175.898 230.063 175.898C230.353 175.898 229.099 176.705 228.957 176.833" stroke="rgb(0,173,181)" stroke-opacity="0.5" stroke-linecap="round" stroke-linejoin="round" stroke-width="1" />
			<path id="Vector 208" d="M225.046 180.404C226.251 179.704 228.35 178.944 229.231 177.768C229.317 177.654 229.38 177.5 229.505 177.428C229.943 177.178 229.169 177.457 229.042 177.513" stroke="rgb(0,173,181)" stroke-opacity="0.5" stroke-linecap="round" stroke-linejoin="round" stroke-width="1" />
			<path id="Vector 209" d="M225.896 181.51C227.343 180.956 229.986 180.464 230.781 178.874C230.896 178.644 230.641 178.704 230.488 178.704" stroke="rgb(0,173,181)" stroke-opacity="0.5" stroke-linecap="round" stroke-linejoin="round" stroke-width="1" />
			<path id="Vector 210" d="M227.427 181.34C227.335 183.29 227.354 185.273 226.241 186.943C225.698 187.757 225.322 188.299 225.131 189.253C224.927 190.272 224.704 191.123 224.238 192.054C223.779 192.973 223.24 193.724 222.788 194.605C222.553 195.062 221.976 195.502 222.089 196.051C222.146 196.328 222.008 196.576 221.919 196.835C221.653 197.603 221.156 198.279 220.69 198.942C220.374 199.392 220.378 200.2 220.794 199.367" stroke="rgb(0,173,181)" stroke-opacity="0.5" stroke-linecap="round" stroke-linejoin="round" stroke-width="1" />
			<path id="Vector 211" d="M220.539 197.071C221.306 197.238 222.473 197.751 223.26 197.751C223.274 197.751 222.591 196.927 222.495 196.816" stroke="rgb(0,173,181)" stroke-opacity="0.5" stroke-linecap="round" stroke-linejoin="round" stroke-width="1" />
			<path id="Vector 212" d="M221.049 193.585C222.134 194.048 223.221 194.507 224.299 194.988C224.552 195.1 224.537 195.117 224.45 195.03C224.264 194.843 224.105 194.641 223.94 194.435" stroke="rgb(0,173,181)" stroke-opacity="0.5" stroke-linecap="round" stroke-linejoin="round" stroke-width="1" />
			<path id="Vector 213" d="M222.07 191.289C223.377 191.695 224.682 192.133 226.005 192.489C226.153 192.529 226.36 192.608 226.217 192.46C225.932 192.166 225.604 191.905 225.301 191.629" stroke="rgb(0,173,181)" stroke-opacity="0.5" stroke-linecap="round" stroke-linejoin="round" stroke-width="1" />
			<path id="Vector 214" d="M222.75 188.398C224.238 189.125 225.72 189.909 227.247 190.557C227.498 190.663 227.582 190.741 227.531 190.542C227.461 190.273 227.357 190.018 227.257 189.758" stroke="rgb(0,173,181)" stroke-opacity="0.5" stroke-linecap="round" stroke-linejoin="round" stroke-width="1" />
			<path id="Vector 215" d="M224.62 186.357C224.756 186.422 228.873 188.655 228.532 187.802" stroke="rgb(0,173,181)" stroke-opacity="0.5" stroke-linecap="round" stroke-linejoin="round" stroke-width="1" />
			<path id="Vector 216" d="M225.471 184.996C226.713 185.288 227.969 185.554 229.212 185.762" stroke="rgb(0,173,181)" stroke-opacity="0.5" stroke-linecap="round" stroke-linejoin="round" stroke-width="1" />
			<path id="Vector 217" d="M226.832 183.636C227.398 183.663 227.965 183.691 228.532 183.721" stroke="rgb(0,173,181)" stroke-opacity="0.5" stroke-linecap="round" stroke-linejoin="round" stroke-width="1" />
			<path id="Vector 218" d="M215.607 209.146C215.016 209.381 211.377 210.286 211.355 211.291C211.347 211.684 211.355 212.077 211.402 212.467C211.549 213.678 212.392 214.312 213.424 214.891C214.737 215.626 216.151 215.649 217.582 215.231C218.942 214.833 219.826 213.329 219.282 212.037C219.169 211.769 219.56 211.715 219.306 211.404C219.059 211.102 218.896 211.277 218.498 211.357" stroke="rgb(0,173,181)" stroke-opacity="0.5" stroke-linecap="round" stroke-linejoin="round" stroke-width="1" />
			<path id="Vector 219" d="M213.821 212.292C214.498 210.58 215.342 208.87 215.735 207.063C215.837 206.589 215.964 206.191 216.221 205.764C216.763 204.86 217.241 203.895 217.563 202.891C217.868 201.938 217.888 200.998 218.29 200.066C218.434 199.734 219.291 198.737 218.923 199.197" stroke="rgb(0,173,181)" stroke-opacity="0.5" stroke-linecap="round" stroke-linejoin="round" stroke-width="1" />
			<path id="Vector 220" d="M220.539 200.047C220.223 202.017 219.749 203.902 219.415 205.849C219.229 206.928 218.923 207.83 218.923 208.967C218.923 209.779 219.213 210.457 219.027 211.272C218.813 212.21 218.62 211.748 218.243 211.102" stroke="rgb(0,173,181)" stroke-opacity="0.5" stroke-linecap="round" stroke-linejoin="round" stroke-width="1" />
			<path id="Vector 221" d="M219.689 200.047C219.097 201.277 217.818 203.299 217.818 204.852C217.818 205.735 217.875 206.672 217.813 207.568C217.74 208.634 216.908 210.015 216.41 210.932C216.245 211.236 216.03 211.471 215.928 211.801C215.801 212.213 215.892 212.238 215.607 211.782" stroke="rgb(0,173,181)" stroke-opacity="0.5" stroke-linecap="round" stroke-linejoin="round" stroke-width="1" />
			<path id="Vector 222" d="M213.566 210.507C215.014 211.543 217.571 213.657 219.349 211.829C219.626 211.544 220.026 210.936 220.18 210.573C220.39 210.076 219.71 210.498 219.263 210.592" stroke="rgb(0,173,181)" stroke-opacity="0.5" stroke-linecap="round" stroke-linejoin="round" stroke-width="1" />
			<path id="Vector 223" d="M215.267 208.976C216.093 208.95 217.762 209.173 218.564 208.759C218.591 208.745 218.503 208.768 218.479 208.787C218.4 208.85 218.236 208.747 218.158 208.721" stroke="rgb(0,173,181)" stroke-opacity="0.5" stroke-linecap="round" stroke-linejoin="round" stroke-width="1" />
			<path id="Vector 224" d="M216.202 205.83C216.808 205.99 219.002 206.924 219.093 205.915" stroke="rgb(0,173,181)" stroke-opacity="0.5" stroke-linecap="round" stroke-linejoin="round" stroke-width="1" />
			<path id="Vector 225" d="M217.223 203.279C217.974 203.769 221.023 206.04 220.539 203.619" stroke="rgb(0,173,181)" stroke-opacity="0.5" stroke-linecap="round" stroke-linejoin="round" stroke-width="1" />
			<path id="Vector 226" d="M218.073 202.088C218.838 202.287 219.604 202.485 220.369 202.683" stroke="rgb(0,173,181)" stroke-opacity="0.5" stroke-linecap="round" stroke-linejoin="round" stroke-width="1" />
			<path id="Vector 227" d="M221.814 202.088C222.76 202.98 224.65 205.054 224.706 206.614C224.751 207.886 224.706 209.116 224.706 210.403C224.706 211.339 224.884 212.338 224.791 213.228C224.668 214.396 222.874 214.411 223.303 215.783C223.446 216.242 223.321 216.513 223.723 216.842C224.07 217.125 224.322 217.455 224.45 217.905C224.751 218.955 224.153 219.903 223.43 220.626C222.978 221.078 222.391 221.987 221.857 222.284C221.593 222.43 221.054 222.326 220.751 222.326C220.471 222.326 219.904 222.509 219.651 222.624C219.278 222.794 218.802 222.494 218.328 222.667" stroke="rgb(0,173,181)" stroke-opacity="0.5" stroke-linecap="round" stroke-linejoin="round" stroke-width="1" />
			<path id="Vector 228" d="M208.549 207.02C208.892 208.159 209.147 209.106 209.721 210.081C209.956 210.482 209.924 210.846 209.82 211.314C209.699 211.859 209.301 213.136 209.612 213.695C210.09 214.555 210.08 215.465 210.08 216.417C210.08 217.334 211.513 217.732 211.984 218.202C212.682 218.901 212.379 219.792 213.528 220.097C213.78 220.163 214.173 220.167 214.369 220.328C214.518 220.45 214.693 220.755 214.889 220.791C215.294 220.865 215.836 220.784 216.202 220.947C216.508 221.083 216.731 221.279 217.01 221.434C217.317 221.604 217.738 221.412 218.073 221.58C219.216 222.152 218.706 221.608 217.903 220.966" stroke="rgb(0,173,181)" stroke-opacity="0.5" stroke-linecap="round" stroke-linejoin="round" stroke-width="1" />
		</g>
		<g id="SPRINKLES">
			<path id="Vector 229" d="M123.926 164.311C121.654 167.219 111.898 178.853 120.211 181.486C122.791 182.303 126.149 180.424 128.93 180.696C132.861 181.079 135.072 184.422 136.039 187.893C137.153 191.89 131.007 198.998 133.962 201.147C139.022 204.827 146.311 198.604 150.492 203.546C152.863 206.347 150.37 210.417 151.838 203.809" stroke="rgb(0,173,181)" stroke-opacity="0.5" stroke-linecap="round" stroke-linejoin="round" stroke-width="1" />
			<path id="Vector 230" d="M238.041 119.02C240.231 121.922 245.443 128.459 247.404 132.186C249.072 135.359 246.969 135.232 245.18 133.971C243.04 132.464 243.341 129.258 243.951 127.037C246.013 119.541 259.356 112.649 260.862 124.17C261.391 128.217 257.774 135.021 252.846 133.415C246.339 131.295 246.754 121.365 251.675 117.675C256.709 113.899 264.958 118.237 264.958 124.404C264.958 131.25 256.821 133.37 253.665 127.33C250.796 121.84 255.879 116.097 261.33 115.275C263.335 114.973 268.514 117.289 264.9 118.494" stroke="rgb(0,173,181)" stroke-opacity="0.5" stroke-linecap="round" stroke-linejoin="round" stroke-width="1" />
			<path id="Vector 231" d="M348.108 171.158C344.698 174.546 333.921 182.447 342.988 185.523C348.264 187.313 353.149 184.379 356.418 180.374C360.025 175.955 360.637 168.966 354.896 166.096C350.432 163.864 346.584 160.278 342.842 165.891" stroke="rgb(0,173,181)" stroke-opacity="0.5" stroke-linecap="round" stroke-linejoin="round" stroke-width="1" />
			<path id="Vector 233" d="M464.496 217.502C457.984 221.381 448.096 226.066 458.176 229.732C459.726 230.295 460.735 229.928 462.097 228.971C467.136 225.43 467.432 224.012 467.129 218.555C466.929 214.942 461.645 215.768 459.23 216.975C455.668 218.756 453.183 222.321 451.74 225.928C449.798 230.782 459.835 230.485 461.219 224.641C462.087 220.977 457.896 215.773 455.017 220.252C451.201 226.187 457.023 231.494 460.693 225.285C464.207 219.337 455.995 216.884 453.788 223.822C450.885 232.944 468.139 223.039 461.863 219.901C458.122 218.031 451.806 229.908 458.703 226.952C467.078 223.363 457.708 218.073 457.708 226.455C457.708 233.257 468.958 223.386 461.629 220.72C459.953 220.111 458.299 225.466 459.493 226.66C461.569 228.736 465.178 223.359 464.994 221.423C464.202 213.112 456.067 234.241 465.754 224.553C467.967 222.34 467.876 218.34 464.204 220.691C462.036 222.078 460.665 227.966 464.759 226.601C468.692 225.29 468.691 218.007 464.467 219.696C461.889 220.728 460.955 224.377 458.176 223.822" stroke="rgb(0,173,181)" stroke-opacity="0.5" stroke-linecap="round" stroke-linejoin="round" stroke-width="1" />
			<path id="Vector 234" d="M407.619 271.746C406.532 272.946 389.179 294.357 397.905 283.449C399.901 280.954 401.734 278.5 404.459 276.749C406.138 275.669 407.756 275.003 409.199 273.56C410.775 271.983 408.54 272.087 408.175 275.374C407.857 278.236 408.1 290.733 407.619 290.705C404.366 290.514 402.233 287.312 399.222 286.258C397.609 285.693 392.826 286.506 394.16 285.438C397.422 282.829 407.413 275.346 404.459 278.3C402.221 280.537 397.622 288.947 399.193 286.199C400.309 284.245 403.328 277.879 402.879 278.943C401.953 281.136 400.342 284.893 400.48 287.311C400.611 289.606 405.17 283.958 405.454 283.39C407.567 279.164 403.195 288.668 404.752 286.404C406.154 284.364 410.894 279.179 407.502 284.268C406.759 285.382 411.016 280.244 410.252 281.342C410.03 281.661 408.101 284.898 409.228 283.771C413.266 279.733 407.316 283.931 406.565 282.805" stroke="rgb(0,173,181)" stroke-opacity="0.5" stroke-linecap="round" stroke-linejoin="round" stroke-width="1" />
			<path id="Vector 235" d="M372.334 359.168C374.178 356.543 384.712 344.961 376.05 344.451C374.586 344.365 371.567 343.89 370.345 344.89C367.438 347.269 368.698 353.685 372.627 354.399C377.837 355.346 382.719 348.222 377.074 345.475C371.176 342.606 357.254 354.131 363.264 358.875C375.097 368.217 385.797 341.07 370.491 344.978C356.607 348.523 368.838 362.823 375.143 353.609C381.893 343.744 361.079 343.659 364.756 354.692C366.57 360.133 372.523 357.507 373.592 353.112C375.16 346.668 368.751 349.329 368.648 353.785C368.537 358.56 375.894 349.92 371.486 350.303C368.3 350.58 367.986 354.955 365.488 354.955" stroke="rgb(0,173,181)" stroke-opacity="0.5" stroke-linecap="round" stroke-linejoin="round" stroke-width="1" />
			<path id="Vector 236" d="M162.732 309.664C163.795 314.489 165.891 329.088 165.891 324.146C165.891 320.735 163.286 317.552 162.761 314.14C162.577 312.948 162.956 309.422 161.942 308.611C161.248 308.056 167.806 313.16 169.549 314.14C172.729 315.929 175.008 319.271 177.77 315.72C179.096 314.016 182.996 313.78 183.534 313.35C187.433 310.231 187.076 305.575 187.981 301.501C188.304 300.048 187.484 306.462 187.484 308.347C187.484 310.759 187.919 313.953 188.566 316.218C189.485 319.434 189.117 310.357 188.244 308.611C186.826 305.774 186.957 303.257 186.957 300.184C186.957 298.971 195.761 314.179 194.213 315.34C193.566 315.825 184.945 313.447 182.334 314.287C180.085 315.01 178.031 315.853 175.898 316.92C175.314 317.211 174.352 318.273 174.727 317.973C176.064 316.904 180.155 313.979 178.531 314.521C176.299 315.264 174.108 317.424 172.094 318.617C168.298 320.866 167.07 320.552 165.482 324.41C165.253 324.966 168.086 324.895 168.642 325.053C172.627 326.192 175.132 323.088 178.648 321.66C183.186 319.816 188.403 316.03 193.277 315.457C196.955 315.024 191.362 313.734 191.17 313.35" stroke="rgb(0,173,181)" stroke-opacity="0.5" stroke-linecap="round" stroke-linejoin="round" stroke-width="1" />
			<path id="Vector 237" d="M363.908 106.908C373.833 103.726 389.908 100.067 398.783 92.8056C400.393 91.488 402.887 90.2249 402.323 87.6855C400.203 78.1454 395.59 75.908 386.495 76.9186C381.45 77.4792 376.608 82.1327 371.924 84.0283C367.103 85.9798 362.279 88.5437 357.881 91.3427C353.429 94.1755 356.008 95.5788 356.008 100.471C356.008 103.161 357.615 106.908 360.485 106.908C361.792 106.908 365.542 105.855 361.83 105.855C358.918 105.855 354.397 106.296 351.795 104.918C349.808 103.866 353.73 101.795 354.662 101.671C357.991 101.227 350.848 104.483 350.127 104.714C348.645 105.188 355.476 100.011 351.678 101.232C347.561 102.555 353.671 99.0064 354.955 98.3646C356.404 97.6401 355.14 98.7871 355.482 98.189C356.028 97.2321 359.193 93.7164 356.33 96.5798C355.371 97.5385 358.494 94.9448 359.548 94.0929C361.535 92.4886 359.015 94.9227 358.524 95.3218C356.265 97.1605 355.736 95.6768 353.902 96.4921C353.135 96.8329 351.268 97.9632 351.268 96.6384C351.268 94.3526 359.333 93.3114 360.806 93.2445C369.827 92.8344 376.14 88.8553 384.447 86.7785C388.444 85.7791 392.813 84.3398 396.559 82.5654C399.338 81.2494 404.903 77.1292 407.853 77.9719C409.012 78.3031 391.129 88.7084 396.267 85.3156C400.517 82.5091 405.391 80.5383 399.017 85.813C393.911 90.0386 402.894 85.1166 403.611 85.4034C404.898 85.9185 395.681 91.183 402.704 87.9488C405.389 86.7119 407.619 86.6508 407.619 83.7357C407.619 79.7787 408.701 75.0887 403.669 76.9186C397.862 79.0303 393.201 83.5438 387.197 85.3156C383.058 86.537 379.025 88.0795 374.967 89.5287C370.258 91.2104 361.735 93.0908 358.378 97.1943C356.589 99.3811 353.402 107.904 359.987 104.216C366.028 100.833 366.99 93.9889 370.227 88.5925C371.836 85.9121 367.425 94.2537 366.775 97.3113C366.028 100.828 369.337 104.875 373.124 104.216C377.278 103.494 381.647 97.7573 383.13 94.2685C390.257 77.4999 377.33 93.7638 380.994 97.4283C384.883 101.317 390.81 91.0151 391.586 88.4755C392.521 85.4154 393.07 81.6434 394.19 78.7326C395.642 74.9575 386.371 79.2093 385.5 79.6396C380.678 82.0227 377.312 85.2016 374.031 89.4117C372.843 90.9356 368.077 98.1087 371.339 99.7397C375.711 101.925 381.078 95.1316 381.199 91.606C381.611 79.663 371.777 85.7839 365.839 90.465C362.169 93.3575 365.357 99.1387 366.014 98.4816" stroke="rgb(0,173,181)" stroke-opacity="0.5" stroke-linecap="round" stroke-linejoin="round" stroke-width="1" />
			<path id="Vector 238" d="M230.668 392.346C230.439 392.529 221.774 400.003 221.774 397.876C221.774 396.63 222.733 395.296 223.588 394.482C225.278 392.872 231.955 391.634 230.346 395.565C229.268 398.202 224.86 402.087 223.617 397.115C223.101 395.051 226.644 390.908 228.796 392.668C231.168 394.609 226.068 397.082 224.466 396.208C221.604 394.647 225.041 389.09 227.801 390.24C230.688 391.443 226.718 394.731 225.402 395.389C222.326 396.927 222.756 394.441 221.189 392.873" stroke="rgb(0,173,181)" stroke-opacity="0.5" stroke-linecap="round" stroke-linejoin="round" stroke-width="1" />
			<path id="Vector 239" d="M87.9489 391.82C90.9847 396.822 96.7666 402.013 90.8747 406.566C89.3549 407.74 80.39 412.435 80.927 406.975C81.581 400.326 91.49 400.178 92.1035 394.219C92.7102 388.325 78.6349 390.546 75.4266 386.553C73.4167 384.052 71.7959 378.51 72.2667 375.318C72.4501 374.075 75.6018 371.663 75.2803 373.914C74.6917 378.034 61.4067 388.588 69.2825 392.054C74.5628 394.377 75.9251 388.495 79.8152 387.08C87.8283 384.166 75.8362 405.777 75.8362 400.246" stroke="rgb(0,173,181)" stroke-opacity="0.5" stroke-linecap="round" stroke-linejoin="round" stroke-width="1" />
			<path id="Vector 240" d="M346.002 460.283C343.563 466.054 338.629 483.84 338.629 477.574C338.629 476.597 338.818 475.825 339.156 474.912C340.741 470.621 342.577 466.628 345.241 462.857C346.696 460.799 348.429 454.772 350.508 459.346C351.478 461.481 354.253 467.422 353.082 469.762C351.614 472.7 347.054 474.385 344.013 474.502C343.22 474.532 334.913 475.624 337.605 473.156C340.769 470.256 343.83 461.436 348.606 460.839C349.343 460.747 350.884 461.239 351.532 461.599C352.673 462.233 351.283 463.378 350.742 464.262C350.093 465.322 344.959 472.483 344.949 472.161C344.803 467.362 349.727 460.395 352.38 456.772C353.332 455.473 348.269 464.291 347.114 466.281C346.22 467.82 347.386 471.092 343.369 470.289" stroke="rgb(0,173,181)" stroke-opacity="0.5" stroke-linecap="round" stroke-linejoin="round" stroke-width="1" />
			<path id="Vector 241" d="M182.744 36.8648C180.395 46.0569 178.301 54.8151 177.448 64.1915C177.363 65.1294 176.77 65.7358 177.361 66.4736C178.239 67.5717 180.563 60.5897 181.457 58.7203C184.291 52.7949 187.484 50.4566 187.484 43.1844C187.484 42.1351 187.484 36.0956 187.484 40.0831C187.484 43.4685 188.125 46.8144 187.893 50.2063C187.718 52.7701 185.257 59.6889 187.074 57.8718C189.879 55.0672 187.632 41.0049 183.241 40.639C177.249 40.1396 174.359 53.129 173.674 57.1696C172.877 61.8708 176.192 63.839 179.847 60.1832C184.837 55.1934 185.92 44.9347 181.632 39.0884C175.742 31.0564 171.877 45.5488 171.392 49.0945C170.295 57.1151 174.775 59.6853 180.082 53.9806C182.033 51.8824 185.969 48.2543 185.143 44.9984C184.045 40.6676 177.644 44.8731 176.366 46.7539C174.554 49.4209 174.577 56.064 177.507 57.9596C180.242 59.7295 182.904 52.3957 182.598 50.5574C181.298 42.7611 166.602 55.1374 173.908 59.5688C180.267 63.4256 184.482 46.1709 176.658 48.3046C174.48 48.8987 169.305 54.7705 173.791 54.7705" stroke="rgb(0,173,181)" stroke-opacity="0.5" stroke-linecap="round" stroke-linejoin="round" stroke-width="1" />
			<path id="Vector 242" d="M43.1844 186.957C40.8179 193.662 39.1142 197.942 33.1198 201.703C31.6147 202.647 29.6257 204.318 29.3163 206.209C28.6552 210.249 35.0278 214.701 38.6495 213.494C46.2807 210.95 34.733 203.397 33.5001 201.205C31.3535 197.389 39.1119 190.534 42.687 192.545C45.4699 194.111 46.7036 199.566 45.0569 202.23C42.6581 206.11 37.5021 206.263 33.4709 205.653C30.2604 205.166 23.8296 205.828 25.7176 210.597C28.08 216.566 39.2299 213.437 40.9023 208.374C42.5306 203.444 33.7155 201.586 35.6067 196.963C36.9057 193.788 41.0073 189.824 44.6473 189.824C49.0074 189.824 44.6532 197.969 44.0036 199.245C41.1353 204.883 36.7467 205.445 31.1888 206.969C20.7281 209.837 31.9973 210.241 32.6516 206.969" stroke="rgb(0,173,181)" stroke-opacity="0.5" stroke-linecap="round" stroke-linejoin="round" stroke-width="1" />
			<path id="Vector 243" d="M30.545 259.107C29.427 263.316 26.1217 270.501 26.4489 275.081C26.6022 277.228 27.1885 270.84 27.4436 268.703C27.9297 264.632 28.4858 260.034 30.662 256.473C31.0482 255.841 39.9802 266.991 40.7852 268.82C42.9395 273.716 40.2423 272.784 36.8646 274.379C34.9874 275.266 22.1772 279.788 22.1772 278.592C22.1772 277.34 24.5923 274.795 25.1615 273.735C26.9434 270.42 28.8551 266.258 29.6087 262.559C31.2182 254.658 30.0183 270.917 30.0183 272.156C30.0183 272.907 30.3104 277.305 28.5554 277.305C26.359 277.305 30.0403 273.171 30.779 271.102C31.5624 268.909 34.6807 262.444 33.9096 260.131C32.8175 256.854 32.2711 266.89 32.1541 270.342C32.0748 272.681 30.9428 276.586 32.7685 272.799C33.3503 271.593 35.2283 266.645 35.1969 267.006C34.9322 270.051 33.7048 273.19 33.7048 276.252C33.7048 279.385 35.3578 269.298 38.2105 268.001C38.9198 267.678 37.9179 273.625 37.9179 274.496C37.9179 276.081 39.4393 268.405 39.4393 269.99C39.4393 270.432 38.8081 273.103 38.3275 272.273C36.358 268.871 34.8762 266.768 30.8375 265.543C28.9982 264.985 23.1516 265.368 25.0738 265.368C26.3372 265.368 28.3215 260.971 29.7257 262.12C31.5888 263.644 29.0319 268.51 28.4384 270.166C27.4666 272.877 26.8581 269.064 29.2576 269.347C31.7578 269.641 29.207 278.873 30.6035 276.778C31.2516 275.806 33.2148 271.01 33.1489 271.57C31.8741 282.406 32.1394 268.608 34.2314 271.746" stroke="rgb(0,173,181)" stroke-opacity="0.5" stroke-linecap="round" stroke-linejoin="round" stroke-width="1" />
			<path id="Vector 244" d="M291.232 115.861C297.932 115.53 304.403 118.007 303.344 110.068C302.82 106.134 300.615 99.7021 301.764 95.8484C302.985 91.757 310.476 82.5299 304.076 79.6396C298.709 77.2159 291.695 84.0698 290.705 88.7095C290.293 90.6392 290.381 96.6676 293.572 96.6676C295.984 96.6676 297.524 94.2999 299.629 96.4043C302.38 99.1553 302.871 101.665 300.916 105.123C296.224 113.424 277.661 104.152 287.662 94.1514C289.033 92.7807 294.455 86.494 297.025 88.2999C300.56 90.7844 300.082 97.2529 298.254 100.471C296.43 103.68 289.738 107.041 287.106 102.929C285.806 100.897 286.428 99.5349 288.598 99.5349" stroke="rgb(0,173,181)" stroke-opacity="0.5" stroke-linecap="round" stroke-linejoin="round" stroke-width="1" />
			<path id="Vector 245" d="M347.337 165.146C347.955 164.896 367.221 155.385 366.325 160.611C365.844 163.415 366.165 166.031 366.559 168.832C366.71 169.904 369.321 178.253 366.705 178.253C361.831 178.253 357.073 175.805 352.193 176.732C350.17 177.116 346.141 178.502 345.991 175.269C345.878 172.844 343.864 161.945 348.653 163.01C352.601 163.887 352.772 160.754 349.97 167.72C349.572 168.709 346.957 176.14 347.395 175.795C351.776 172.353 354.179 165.735 358.191 161.722C360.697 159.217 356.402 169.273 355.88 170.529C353.214 176.947 360.028 165.09 360.795 163.917C364.163 158.766 361.606 167.987 361.088 169.505C359.53 174.068 364.319 165.548 366.237 164.414C372.593 160.658 366.588 173.63 365.242 170.939" stroke="rgb(0,173,181)" stroke-opacity="0.5" stroke-linecap="round" stroke-linejoin="round" stroke-width="1" />
			<path id="Vector 247" d="M295.445 264.373C295.747 272.114 295.612 276.337 302.174 271.453C304.036 270.068 303.245 273.346 302.788 274.145C302.026 275.48 297.555 282.189 302.057 279.616C303.197 278.965 306.27 277.665 306.27 280.172C306.27 280.568 304.892 285.412 306.241 284.063C308.451 281.853 308.491 273.521 308.611 270.283C308.637 269.576 308.946 268.754 308.318 269.113C305.09 270.957 303.557 280.615 301.881 284.385C300.435 287.64 296.264 283.805 293.865 282.279C289.318 279.385 292.177 281.44 292.285 281.225" stroke="rgb(0,173,181)" stroke-opacity="0.5" stroke-linecap="round" stroke-linejoin="round" stroke-width="1" />
			<path id="Vector 248" d="M259.107 333.363C259.087 333.608 258.469 348.726 258.58 341.379C258.614 339.137 258.549 336.893 258.58 334.65C258.667 328.281 259.804 331.236 262.559 333.86C263.822 335.063 268.457 337.66 267.708 340.092C267.488 340.809 260.048 342.104 258.872 342.55C257.991 342.884 252.787 346.161 252.787 346.002C252.787 342.089 254.165 337.854 254.63 333.948C255.615 325.677 261.338 347.818 261.71 342.228C261.798 340.912 261.74 333.077 261.74 335.031C261.74 336.485 262.793 344.241 262.793 339.156C262.793 338.005 262.793 336.854 262.793 335.703C262.793 335.161 263.089 337.758 263.29 337.254C264.02 335.43 262.793 331.762 262.793 336.23C262.793 341.246 261.387 337.634 258.317 337.634C255.69 337.634 254.186 347.26 255.537 345.007C256.721 343.035 254.389 335.002 255.42 339.127C255.96 341.286 257.257 338.899 258.053 338.103" stroke="rgb(0,173,181)" stroke-opacity="0.5" stroke-linecap="round" stroke-linejoin="round" stroke-width="1" />
		</g>
	</g>
</svg>
