<svg viewBox="0 0 24 24" xmlns="http://www.w3.org/2000/svg" xmlns:xlink="http://www.w3.org/1999/xlink" width="24.000000" height="24.000000" fill="none">
	<rect id="instagram" width="24.000000" height="24.000000" x="0.000000" y="0.000000" fill="rgb(255,255,255)" fill-opacity="0" />
	<path id="Vector" d="M17 2C19.7614 2 22 4.23858 22 7L22 17C22 19.7614 19.7614 22 17 22L7 22C4.23858 22 2 19.7614 2 17L2 7C2 4.23858 4.23858 2 7 2L17 2Z" stroke="rgb(238,238,238)" stroke-opacity="0.75" stroke-linecap="round" stroke-linejoin="round" stroke-width="2" />
	<path id="Vector" d="M15.5937 13.7988C15.2062 14.5456 14.5931 15.1512 13.8416 15.5295C13.0901 15.9077 12.2384 16.0394 11.4077 15.9057C10.5771 15.7721 9.80971 15.3799 9.21479 14.785C8.61987 14.1901 8.22768 13.4227 8.09402 12.592C7.96035 11.7614 8.09202 10.9097 8.47028 10.1582C8.84854 9.40667 9.45414 8.79355 10.2009 8.40605C10.9477 8.01856 11.7977 7.8764 12.63 7.99981C13.4789 8.1257 14.2648 8.52128 14.8716 9.12812C15.4785 9.73496 15.8741 10.5209 16 11.3698C16.1234 12.2021 15.9812 13.052 15.5937 13.7988Z" fill-rule="nonzero" stroke="rgb(238,238,238)" stroke-opacity="0.75" stroke-linecap="round" stroke-linejoin="round" stroke-width="2" />
	<path id="Vector" d="M17.5 6.5L17.51 6.5" stroke="rgb(238,238,238)" stroke-opacity="0.75" stroke-linecap="round" stroke-linejoin="round" stroke-width="2" />
</svg>
