<svg viewBox="0 0 153 115.373" xmlns="http://www.w3.org/2000/svg" xmlns:xlink="http://www.w3.org/1999/xlink" width="153.000000" height="115.372559" fill="none" customFrame="#000000">
	<g id="keyboard">
		<path id="Vector 75" d="M12.9618 19.3546C33.0401 19.0908 52.2893 14.1131 71.2756 9.69071C86.1981 6.21495 101.582 2.9884 116.997 0.815233C120.039 0.386423 124.783 -0.924978 127.248 1.09498C129.691 3.09662 129.74 6.3967 131.15 8.80062C134.623 14.7206 136.933 21.3255 138.901 27.5943C141.066 34.495 131.139 34.6917 123.985 36.4189C115.859 38.3807 107.914 40.5455 99.5458 41.8866C91.5915 43.1614 84.0338 46.0273 76.3125 47.8883C64.5449 50.7246 53.0856 54.0922 41.3384 56.9418C34.3454 58.6382 27.0125 59.4943 20.1269 61.3669C17.7143 62.023 15.1824 63.1041 12.6426 63.4776C10.6029 63.7776 10.4275 60.0128 10.2483 59.2561C8.82585 53.2503 4.10451 47.9215 2.90586 41.734C2.15222 37.8436 2.71944 33.5298 1.27421 29.7305C0.5843 27.9168 -1.34842 23.7107 1.54024 22.33C4.48961 20.9203 9.92664 21.5551 13.4584 21.0076C16.2115 20.5808 19.5714 20.0412 22.397 20.0412C24.4506 20.0412 26.7443 19.6028 28.7463 19.3418C34.0147 18.6551 29.2293 18.1237 26.0505 17.9813" stroke="rgb(0,173,181)" stroke-opacity="0.5" stroke-linecap="round" stroke-linejoin="round" stroke-width="1" transform="matrix(0.910504,-0.413501,0.413501,0.910504,0,57.5605)" />
		<path id="Vector 76" d="M0 0C7.22362 7.73212 12.1492 17.1216 15.9618 26.0415C16.0584 26.2675 17.3633 27.8431 16.8486 28.1014C15.8548 28.6002 11.2818 23.3992 10.854 22.8881" stroke="rgb(0,173,181)" stroke-opacity="0.5" stroke-linecap="round" stroke-linejoin="round" stroke-width="1" transform="matrix(0.910504,-0.413501,0.413501,0.910504,20.9683,80.1045)" />
		<path id="Vector 77" d="M0 0C7.08758 4.32535 9.92699 9.0888 14.3479 14.6356C16.3172 17.1064 18.4344 19.4471 19.9345 22.087C20.639 23.3267 20.8199 24.716 21.3888 25.9907C22.1686 27.7378 17.4767 22.9834 16.9195 22.4303" stroke="rgb(0,173,181)" stroke-opacity="0.5" stroke-linecap="round" stroke-linejoin="round" stroke-width="1" transform="matrix(0.910504,-0.413501,0.413501,0.910504,32.4316,71.3787)" />
		<path id="Vector 78" d="M0 0C3.3645 5.54534 6.79117 11.0495 10.4284 16.5048C11.8102 18.5773 13.564 20.6375 14.4898 22.8499C16.1332 26.7774 13.9595 21.6676 13.0887 20.1415" stroke="rgb(0,173,181)" stroke-opacity="0.5" stroke-linecap="round" stroke-linejoin="round" stroke-width="1" transform="matrix(0.910504,-0.413501,0.413501,0.910504,45.6208,64.1326)" />
		<path id="Vector 79" d="M0 0C3.06131 3.22017 6.34704 6.44472 8.35335 10.0962C9.17635 11.594 9.63367 13.1925 10.6057 14.6484C11.8033 16.4418 12.6381 18.351 13.869 20.1161C15.6218 22.6294 15.7409 23.2354 13.7272 20.1415" stroke="rgb(0,173,181)" stroke-opacity="0.5" stroke-linecap="round" stroke-linejoin="round" stroke-width="1" transform="matrix(0.910504,-0.413501,0.413501,0.910504,54.5435,59.0747)" />
		<path id="Vector 80" d="M0 0C3.00737 4.13684 5.64135 8.20113 7.51979 12.6647C8.35174 14.6416 8.71001 16.7276 10.2156 18.5266C11.5948 20.1748 12.8209 20.9204 11.4925 18.5393" stroke="rgb(0,173,181)" stroke-opacity="0.5" stroke-linecap="round" stroke-linejoin="round" stroke-width="1" transform="matrix(0.910504,-0.413501,0.413501,0.910504,66.1896,51.5229)" />
		<path id="Vector 81" d="M0 0C2.70614 3.55057 5.4765 6.8895 6.95226 10.8082C7.62784 12.6022 7.86382 14.4881 8.779 16.2378C10.6374 19.7909 9.07514 17.7961 7.66167 15.335" stroke="rgb(0,173,181)" stroke-opacity="0.5" stroke-linecap="round" stroke-linejoin="round" stroke-width="1" transform="matrix(0.910504,-0.413501,0.413501,0.910504,77.4517,43.8948)" />
		<path id="Vector 82" d="M0 0C3.26165 5.83335 5.1571 12.0391 8.45976 17.8273C10.6836 21.7246 7.78006 15.6942 7.34244 14.6484" stroke="rgb(0,173,181)" stroke-opacity="0.5" stroke-linecap="round" stroke-linejoin="round" stroke-width="1" transform="matrix(0.910504,-0.413501,0.413501,0.910504,87.9421,36.1138)" />
		<path id="Vector 83" d="M0 5.57969C5.75448 5.73925 11.8629 5.68504 16.6712 3.06201C17.9972 2.33869 19.4519 1.80691 20.4311 0.824063C21.7758 -0.525704 21.2937 0.0841316 19.1542 0.544321" stroke="rgb(0,173,181)" stroke-opacity="0.5" stroke-linecap="round" stroke-linejoin="round" stroke-width="1" transform="matrix(0.910504,-0.413501,0.413501,0.910504,98.0461,24.3918)" />
		<path id="Vector 84" d="M0 6.64876C5.47037 5.34141 11.5441 3.94534 16.4229 1.61339C18.8564 0.450252 22.789 -0.656158 17.558 0.468982" stroke="rgb(0,173,181)" stroke-opacity="0.5" stroke-linecap="round" stroke-linejoin="round" stroke-width="1" transform="matrix(0.910504,-0.413501,0.413501,0.910504,104.993,28.1069)" />
		<path id="Vector 85" d="M0 6.17978C5.23705 4.58952 9.96683 3.06461 15.0041 1.25884C16.6316 0.6754 20.5673 0.512183 16.2811 0" stroke="rgb(0,173,181)" stroke-opacity="0.5" stroke-linecap="round" stroke-linejoin="round" stroke-width="1" transform="matrix(0.910504,-0.413501,0.413501,0.910504,117.205,33.3823)" />
		<path id="Vector 86" d="M0 6.86642C5.09878 5.8065 10.9126 4.53253 15.6248 2.63213C16.8818 2.1252 18.0147 1.47341 19.2251 0.915522C21.2526 -0.0189723 21.0451 0.451916 19.1542 0" stroke="rgb(0,173,181)" stroke-opacity="0.5" stroke-linecap="round" stroke-linejoin="round" stroke-width="1" transform="matrix(0.910504,-0.413501,0.413501,0.910504,114.231,31.4651)" />
		<path id="Vector 87" d="M0 18.0816C21.6592 18.7099 35.3263 5.72537 55.4052 2.40325C57.8478 1.99911 60.0204 1.37328 62.5703 1.37328C64.2753 1.37328 66.1603 1.72129 67.82 1.5513C68.8324 1.44761 77.6108 0 72.1474 0" stroke="rgb(0,173,181)" stroke-opacity="0.5" stroke-linecap="round" stroke-linejoin="round" stroke-width="1" transform="matrix(0.910504,-0.413501,0.413501,0.910504,23.1041,67.8225)" />
		<path id="Vector 88" d="M0 16.1827C3.18514 15.0619 5.97684 14.124 9.39974 13.6778C9.9611 13.6046 10.6426 13.7833 11.1733 13.6142C12.2245 13.2792 13.7984 12.8015 14.5253 12.1646C17.3877 9.65626 22.2128 11.8635 25.8581 11.3254C29.326 10.8135 32.7073 10.2532 36.2156 9.77407C40.0808 9.24622 42.2576 8.38848 45.8104 7.25638C49.0739 6.21646 52.287 5.13595 55.6181 4.23007C58.3432 3.48898 62.0592 3.21791 64.3438 1.87769C66.9223 0.365152 71.7691 -0.748743 74.6304 0.618846C75.6132 1.08862 81.3596 6.86804 77.5744 3.13653" stroke="rgb(0,173,181)" stroke-opacity="0.5" stroke-linecap="round" stroke-linejoin="round" stroke-width="1" transform="matrix(0.910504,-0.413501,0.413501,0.910504,15.6221,66.0159)" />
		<path id="Vector 89" d="M0 21.9725C17.0326 21.2499 31.8353 12.4031 46.5376 6.86642C51.9529 4.82708 58.1651 4.32296 63.7054 2.39053C66.0751 1.56397 70.3466 1.2572 66.4012 0" stroke="rgb(0,173,181)" stroke-opacity="0.5" stroke-linecap="round" stroke-linejoin="round" stroke-width="1" transform="matrix(0.910504,-0.413501,0.413501,0.910504,29.3831,66.9814)" />
		<path id="Vector 90" d="M0 22.171C15.927 20.737 30.367 13.1223 44.5512 7.98041C51.0042 5.64113 57.3626 3.17791 63.8473 0.885112C66.8038 -0.160215 70.7788 -0.120303 65.4435 0.19847" stroke="rgb(0,173,181)" stroke-opacity="0.5" stroke-linecap="round" stroke-linejoin="round" stroke-width="1" transform="matrix(0.910504,-0.413501,0.413501,0.910504,33.9053,69.989)" />
		<path id="Vector 91" d="M0 25.0836C11.2104 22.1812 21.1962 18.3618 31.5335 14.1482C37.819 11.5862 43.8809 8.37949 50.599 6.41717C54.4535 5.29126 57.9227 3.63279 61.6126 2.31003C63.0991 1.77717 64.3784 1.00893 65.8868 0.491703C69.2846 -0.673365 66.6681 0.529623 64.4857 1.05119" stroke="rgb(0,173,181)" stroke-opacity="0.5" stroke-linecap="round" stroke-linejoin="round" stroke-width="1" transform="matrix(0.910504,-0.413501,0.413501,0.910504,36.8916,73.4778)" />
		<path id="Vector 92" d="M0 23.3458C5.5865 21.8893 12.907 21.1202 17.7176 18.4376C19.4641 17.4637 23.7374 15.1307 25.8581 14.8772C28.6616 14.5422 31.0794 12.6749 33.5198 11.8001C36.0612 10.889 38.5462 10.0016 41.1815 9.20609C43.6527 8.46007 45.6123 6.37664 48.3643 5.93818C51.4299 5.44975 53.7501 3.9041 56.5048 3.02631C58.8891 2.26658 62.7282 1.9249 65.3016 1.58945C66.7274 1.40358 67.9502 0.915522 69.4339 0.915522C72.4411 0.915522 70.5599 0.8042 68.3166 0" stroke="rgb(0,173,181)" stroke-opacity="0.5" stroke-linecap="round" stroke-linejoin="round" stroke-width="1" transform="matrix(0.910504,-0.413501,0.413501,0.910504,39.1318,77.6372)" />
		<path id="Vector 93" d="M0 0C2.8156 1.646 6.49622 3.34522 8.61938 5.544C9.98957 6.96298 11.1145 8.306 8.61938 5.72201" stroke="rgb(0,173,181)" stroke-opacity="0.5" stroke-linecap="round" stroke-linejoin="round" stroke-width="1" transform="matrix(0.910504,-0.413501,0.413501,0.910504,99.8597,30.7017)" />
		<path id="Vector 94" d="M0 0C4.0213 2.34019 6.63894 4.34814 9.25785 7.29875C10.9702 9.22794 10.7793 8.78602 8.93862 6.86642" stroke="rgb(0,173,181)" stroke-opacity="0.5" stroke-linecap="round" stroke-linejoin="round" stroke-width="1" transform="matrix(0.910504,-0.413501,0.413501,0.910504,103.957,25.8247)" />
		<path id="Vector 95" d="M0 0C2.91728 2.85547 5.58116 5.88846 8.76126 8.58302C10.6317 10.1679 9.41696 9.7041 7.98091 8.46858" stroke="rgb(0,173,181)" stroke-opacity="0.5" stroke-linecap="round" stroke-linejoin="round" stroke-width="1" transform="matrix(0.910504,-0.413501,0.413501,0.910504,110.37,20.6492)" />
		<path id="Vector 96" d="M0 0C3.26776 2.68621 6.21717 5.26207 8.93862 8.18884C10.1796 9.52348 8.57826 9.06228 7.66167 8.01082" stroke="rgb(0,173,181)" stroke-opacity="0.5" stroke-linecap="round" stroke-linejoin="round" stroke-width="1" transform="matrix(0.910504,-0.413501,0.413501,0.910504,114.17,16.6614)" />
		<path id="Vector 97" d="M0 7.0915C4.79308 5.45188 9.50776 3.95456 14.0641 2.15785C15.3587 1.64737 22.9873 -1.05762 19.4734 0.453959" stroke="rgb(0,173,181)" stroke-opacity="0.5" stroke-linecap="round" stroke-linejoin="round" stroke-width="1" transform="matrix(0.910504,-0.413501,0.413501,0.910504,99.2589,22.4316)" />
		<path id="Vector 98" d="M0 8.64885C5.67575 7.40059 13.6798 5.87844 17.4161 2.46907C18.5157 1.4657 20.0645 0.609346 21.779 0.231127C23.5178 -0.152462 25.0394 -0.085979 22.3465 0.638026" stroke="rgb(0,173,181)" stroke-opacity="0.5" stroke-linecap="round" stroke-linejoin="round" stroke-width="1" transform="matrix(0.910504,-0.413501,0.413501,0.910504,101.272,26.0916)" />
		<path id="Vector 99" d="M0 8.80612C6.43052 6.87757 11.5409 5.83805 16.5826 2.52462C17.8919 1.66407 19.1785 1.01641 20.7504 0.515555C22.416 -0.0152143 24.5258 -0.33323 21.3888 0.566417" stroke="rgb(0,173,181)" stroke-opacity="0.5" stroke-linecap="round" stroke-linejoin="round" stroke-width="1" transform="matrix(0.910504,-0.413501,0.413501,0.910504,97.8267,26.2266)" />
		<path id="Vector 100" d="M0 0C1.41599 1.55134 2.87921 3.03812 4.46931 4.46317C5.12603 5.05172 4.45108 4.10678 4.15007 3.89097" stroke="rgb(0,173,181)" stroke-opacity="0.5" stroke-linecap="round" stroke-linejoin="round" stroke-width="1" transform="matrix(0.910504,-0.413501,0.413501,0.910504,117.969,34.2922)" />
		<path id="Vector 101" d="M0 0C0.0824666 0.125642 4.85791 7.47337 4.15007 5.9509" stroke="rgb(0,173,181)" stroke-opacity="0.5" stroke-linecap="round" stroke-linejoin="round" stroke-width="1" transform="matrix(0.910504,-0.413501,0.413501,0.910504,122.749,28.6025)" />
		<path id="Vector 102" d="M0 0C0.97085 1.75104 4.04849 6.94963 2.87313 5.26425" stroke="rgb(0,173,181)" stroke-opacity="0.5" stroke-linecap="round" stroke-linejoin="round" stroke-width="1" transform="matrix(0.910504,-0.413501,0.413501,0.910504,127.885,26.0181)" />
		<path id="Vector 103" d="M0 6.2862C4.06632 5.30869 12.7282 3.56923 16.1214 1.13639C17.4586 0.17769 21.1713 -0.404867 17.558 0.335308" stroke="rgb(0,173,181)" stroke-opacity="0.5" stroke-linecap="round" stroke-linejoin="round" stroke-width="1" transform="matrix(0.910504,-0.413501,0.413501,0.910504,112.646,31.0625)" />
		<path id="Vector 104" d="M0 6.86642C0.172621 7.11055 2.96496 13.1112 5.42702 11.444C6.68368 10.5931 8.32036 9.48471 10.1446 9.3841C13.3449 9.2076 15.8328 6.17978 18.9946 6.17978C22.5813 6.17978 23.332 4.4657 20.9277 2.98816C19.983 2.40763 21.815 1.14996 20.6085 0.902807C19.5042 0.676601 19.1298 0.224516 17.8772 0" stroke="rgb(0,173,181)" stroke-opacity="0.5" stroke-linecap="round" stroke-linejoin="round" stroke-width="1" transform="matrix(0.910504,-0.413501,0.413501,0.910504,112.689,31.1594)" />
		<path id="Vector 105" d="M0 6.63754C0.247847 9.81634 0.0125268 10.863 2.3588 12.919C2.99207 13.474 4.31181 13.42 4.78854 13.8473C5.73186 14.6927 8.14891 15.4909 9.57709 14.979C12.4488 13.9495 13.7919 13.1189 17.2388 13.0462C19.4133 13.0003 21.7778 11.9915 23.3752 11.0371C25.1308 9.98821 27.401 9.50626 29.2101 8.46858C29.9805 8.02673 27.6351 5.47898 28.2347 4.47589C28.4047 4.19145 24.5126 2.91399 24.0137 2.46682C23.4091 1.92501 23.3043 1.40463 23.3043 0.686642C23.3043 -0.362069 21.6439 0.399417 20.1119 0" stroke="rgb(0,173,181)" stroke-opacity="0.5" stroke-linecap="round" stroke-linejoin="round" stroke-width="1" transform="matrix(0.910504,-0.413501,0.413501,0.910504,96.8312,24.033)" />
		<path id="Vector 106" d="M0 0C3.66356 2.64834 6.53944 5.46143 9.43521 8.4813C11.9493 11.1031 15.356 13.1731 17.8772 15.7419C19.6721 17.5706 20.7212 20.753 21.5485 22.8881C21.8241 23.5995 21.9682 24.2281 22.0273 24.948C22.1628 26.5996 23.1843 23.0461 23.3043 22.6592" stroke="rgb(0,173,181)" stroke-opacity="0.5" stroke-linecap="round" stroke-linejoin="round" stroke-width="1" transform="matrix(0.910504,-0.413501,0.413501,0.910504,26.4089,75.8738)" />
		<path id="Vector 107" d="M0 0C0.642372 1.3241 2.38204 8.04589 3.83084 3.89097" stroke="rgb(0,173,181)" stroke-opacity="0.5" stroke-linecap="round" stroke-linejoin="round" stroke-width="1" transform="matrix(0.910504,-0.413501,0.413501,0.910504,75.0515,42.4709)" />
	</g>
</svg>
