<svg viewBox="0 0 77.965 99.8856" xmlns="http://www.w3.org/2000/svg" xmlns:xlink="http://www.w3.org/1999/xlink" width="77.964966" height="99.885620" fill="none" customFrame="#000000">
	<g id="lightbulb">
		<path id="Vector 55" d="M0.131346 55.9317C4.23062 48.5018 3.98875 46.3792 3.05389 38.9003C2.53909 34.7819 2.34224 30.758 1.30036 26.7062C-0.562781 19.4607 -1.16747 9.70387 4.66633 3.87006C16.1455 -7.60907 37.5226 8.71623 31.0499 23.2798C28.5864 28.8226 24.3297 32.9263 21.2543 38.1546C20.0209 40.2513 19.3301 42.5241 17.7271 44.4834C16.1898 46.3623 14.2805 48.7008 14.2805 51.0339C14.2805 53.0047 14.8681 55.56 13.4743 57.3023C11.5488 59.7091 12.2333 58.4713 9.38272 58.4713C7.42315 58.4713 4.53343 56.9138 2.95311 55.6495C1.82483 54.7469 1.21974 57.3576 1.21974 54.8433C1.21974 52.6851 1.91444 54.4805 0.494145 54.4805" stroke="rgb(0,173,181)" stroke-opacity="0.5" stroke-linecap="round" stroke-linejoin="round" stroke-width="1.66333342" transform="matrix(0.966747,0.255736,-0.255736,0.966747,31.8944,12.7307)" />
		<path id="Vector 56" d="M15.9631 2.08516C12.0833 0.928438 1.34394 -1.65481 3.82954 1.54096C6.8285 5.39677 8.11108 3.46436 11.791 4.28211C13.6728 4.7003 15.5076 10.5085 13.4236 10.6311C10.4471 10.8062 8.4734 6.80154 5.44198 6.80154C2.6829 6.80154 2.88052 10.4327 4.53499 11.7195C6.71976 13.4188 9.23215 11.5922 10.7026 14.2389C13.0262 18.4215 6.67908 17.741 4.87763 16.7584C3.06271 15.7684 1.33602 14.2226 0 13.3319" stroke="rgb(0,173,181)" stroke-opacity="0.5" stroke-linecap="round" stroke-linejoin="round" stroke-width="1.66333342" transform="matrix(0.966747,0.255736,-0.255736,0.966747,9.82434,69.7214)" />
		<path id="Vector 57" d="M0 0C0.0493595 0.315901 0.100716 2.44889 0.952347 2.44889C1.41089 2.44889 1.62182 2.17081 2.04074 2.40354C2.53344 2.67726 2.99553 3.32156 3.46674 3.69853C3.88204 4.03077 5.11456 3.98972 5.35128 4.40398C5.73804 5.08081 6.52319 5.45126 7.25598 5.53268C8.20611 5.63825 8.55748 6.11518 9.56882 5.89044C9.87794 5.82175 9.90913 5.62338 10.1987 5.62338C10.6457 5.62338 10.8387 5.83718 11.1762 5.46214C11.5498 5.04704 12.1602 4.85264 12.3402 4.22258C12.585 3.36592 13.4822 2.9152 12.1538 3.44659" stroke="rgb(0,173,181)" stroke-opacity="0.5" stroke-linecap="round" stroke-linejoin="round" stroke-width="1.66333342" transform="matrix(0.966747,0.255736,-0.255736,0.966747,18.0194,65.6963)" />
		<path id="Vector 58" d="M9.01149 0C7.38872 0.00877172 6.04747 0.113341 5.49436 1.83415C5.11801 3.005 5.1114 4.15561 5.1114 5.37144C5.1114 6.55349 5.837 7.50382 5.837 8.61647C5.837 10.0873 4.66077 9.84643 3.66525 10.2944C2.72486 10.7176 2.04352 11.0711 1.5338 12.0177C1.02902 12.9552 1.41044 14.7678 1.47838 15.7868C1.53683 16.6637 1.95388 18.5274 1.34736 19.2686C1.01778 19.6715 -0.783136 20.2934 0.395018 19.4097" stroke="rgb(0,173,181)" stroke-opacity="0.5" stroke-linecap="round" stroke-linejoin="round" stroke-width="1.66333342" transform="matrix(0.966747,0.255736,-0.255736,0.966747,35.4156,33.1456)" />
		<path id="Vector 59" d="M0 0C1.29945 0.86333 2.62375 1.58668 4.07645 2.13144C4.68553 2.35985 5.48748 2.7674 5.35128 1.81399" stroke="rgb(0,173,181)" stroke-opacity="0.5" stroke-linecap="round" stroke-linejoin="round" stroke-width="1.66333342" transform="matrix(0.966747,0.255736,-0.255736,0.966747,53.1696,54.8234)" />
		<path id="Vector 60" d="M0 0C2.30287 0.554394 4.59015 1.17922 6.87302 1.79384C7.25273 1.89607 6.38129 0.93608 6.34898 0.906997" stroke="rgb(0,173,181)" stroke-opacity="0.5" stroke-linecap="round" stroke-linejoin="round" stroke-width="1.66333342" transform="matrix(0.966747,0.255736,-0.255736,0.966747,60.9298,43.9292)" />
		<path id="Vector 61" d="M0 2.17679C2.38483 1.83016 4.76251 1.40005 7.13504 0.977541C8.22732 0.783027 8.68977 0.926242 8.07227 0" stroke="rgb(0,173,181)" stroke-opacity="0.5" stroke-linecap="round" stroke-linejoin="round" stroke-width="1.66333342" transform="matrix(0.966747,0.255736,-0.255736,0.966747,65.1388,30.5005)" />
		<path id="Vector 62" d="M0 3.62799C1.88417 3.29688 3.51742 2.97783 5.22027 2.1264C6.01735 1.72787 6.78476 1.24885 7.61877 0.927153C8.60986 0.544877 8.63018 0.661262 7.52808 0" stroke="rgb(0,173,181)" stroke-opacity="0.5" stroke-linecap="round" stroke-linejoin="round" stroke-width="1.66333342" transform="matrix(0.966747,0.255736,-0.255736,0.966747,56.2831,13.6158)" />
		<path id="Vector 63" d="M0.141146 0C-0.133854 1.925 -0.0429507 3.07795 0.735733 4.8222C1.15552 5.76252 1.51061 6.95101 1.71831 7.96646C1.78984 8.31615 1.82973 8.5152 2.066 8.77772C2.15444 8.87598 1.82991 7.70781 1.77374 7.52808" stroke="rgb(0,173,181)" stroke-opacity="0.5" stroke-linecap="round" stroke-linejoin="round" stroke-width="1.66333342" transform="matrix(0.966747,0.255736,-0.255736,0.966747,41.4357,4.99731)" />
		<path id="Vector 64" d="M0 0C0.602112 2.00468 1.46033 3.92766 1.97524 5.93579C2.23574 6.95175 2.07288 7.0135 1.63259 5.98618" stroke="rgb(0,173,181)" stroke-opacity="0.5" stroke-linecap="round" stroke-linejoin="round" stroke-width="1.66333342" transform="matrix(0.966747,0.255736,-0.255736,0.966747,26.1849,8.93762)" />
		<path id="Vector 65" d="M0 0C2.06069 1.78352 3.75068 3.99743 5.35128 6.18774C5.55188 6.46223 5.78379 6.55977 6.00634 6.78232C6.51191 7.2879 5.63915 6.14589 5.53268 5.98618" stroke="rgb(0,173,181)" stroke-opacity="0.5" stroke-linecap="round" stroke-linejoin="round" stroke-width="1.66333342" transform="matrix(0.966747,0.255736,-0.255736,0.966747,16.8851,21.3948)" />
	</g>
</svg>
