<svg viewBox="0 0 75 71.6741" xmlns="http://www.w3.org/2000/svg" xmlns:xlink="http://www.w3.org/1999/xlink" width="75.000000" height="71.674072" fill="none" customFrame="#000000">
	<g id="mail">
		<path id="Vector 115" d="M9.728 3.63314C18.6797 4.04806 28.3995 3.4443 37.3148 2.23613C42.0853 1.58965 46.897 1.45171 51.6128 0.654231C52.2774 0.541846 54.398 -0.573306 54.7341 0.387157C55.2646 1.90315 55.3767 4.06868 55.3135 5.66701C55.1299 10.31 55.6503 15.3762 56.5658 19.9041C57.2919 23.4958 57.8367 26.4897 57.8367 30.1762C57.8367 32.1926 58.8133 35.5081 57.6872 37.0996C54.5475 41.5367 47.6611 43.3493 42.8845 44.6804C35.8655 46.6364 28.9233 48.6665 21.6711 49.0974C17.1725 49.3647 12.8441 48.3784 8.40099 48.3784C4.30832 48.3784 4.6976 48.2861 3.26117 44.023C1.84637 39.8241 1.65381 36.0433 1.65381 31.5321C1.65381 29.1838 0.71396 26.6133 0.1399 24.3417C-0.294897 22.6211 0.402294 20.5148 0.625846 18.7947C0.860316 16.9907 3.32173 12.8499 2.49487 11.2139C1.68443 9.61045 1.25457 6.86599 2.58832 5.39994C3.67735 4.20288 19.7153 2.75988 5.01805 6.2217" stroke="rgb(0,173,181)" stroke-opacity="0.5" stroke-linecap="round" stroke-linejoin="round" stroke-width="1" transform="matrix(0.866025,-0.5,0.5,0.866025,0,29.1147)" />
		<path id="Vector 116" d="M0 5.92414C1.86709 8.6819 3.3472 11.9488 5.23327 14.6143C5.86013 15.5002 7.3596 16.2676 7.73776 17.2029C8.76156 19.7349 14.656 21.9594 16.8212 23.4894C19.2653 25.2165 24.2943 32.8403 27.755 29.0363C34.2604 21.8857 40.9567 14.8949 47.4358 7.77312C48.66 6.42754 49.0842 4.64639 50.202 3.41775C53.6047 -0.322456 47.9408 0.00741653 46.0901 0.00741653" stroke="rgb(0,173,181)" stroke-opacity="0.5" stroke-linecap="round" stroke-linejoin="round" stroke-width="1" transform="matrix(0.866025,-0.5,0.5,0.866025,3.08911,29.8105)" />
	</g>
</svg>
