<svg viewBox="0 0 63.2166 48.2538" xmlns="http://www.w3.org/2000/svg" xmlns:xlink="http://www.w3.org/1999/xlink" width="63.216614" height="48.253784" fill="none" customFrame="#000000">
	<path id="Vector 141" d="M5.37552 43.1213C6.27008 41.9842 7.98321 39.8801 5.58206 39.5081C5.03891 39.424 4.53157 39.1048 3.9986 39.3463C2.35696 40.0903 0.831665 41.7284 0.831665 43.676C0.831665 46.7869 4.24343 47.4605 6.72185 47.4202C10.9034 47.3523 12.1755 43.2782 13.6524 39.9781C15.1442 36.6445 16.8013 33.3649 18.3492 30.0552C20.1007 26.3101 22.9732 23.3268 24.7902 19.6161C25.5693 18.0249 26.5868 16.6236 27.5899 15.1708C29.1461 12.9171 30.2558 10.6435 31.3688 8.14464C32.282 6.09447 33.2946 4.22229 34.4134 2.28181C34.8658 1.49709 34.6958 0.294962 35.5608 1.13389C36.2176 1.77086 37.2625 2.18928 38.1464 2.35114C42.0108 3.05878 45.5646 3.80778 49.5443 3.49135C53.5693 3.17133 57.5921 2.59463 61.5541 1.82726C62.9011 1.56639 62.327 1.88045 61.6918 2.69783C60.6145 4.08422 59.6948 5.55347 58.6626 6.95821C57.3166 8.79012 56.8429 10.9963 56.0464 13.0907C55.171 15.3929 54.129 17.5919 53.2926 19.9319C51.6761 24.4543 49.318 28.5785 46.4003 32.3741C44.7094 34.5738 42.6207 38.4156 39.4545 38.26C34.5547 38.0193 37.8633 28.3742 40.2041 26.4881C41.4643 25.4729 42.8424 26.5659 42.9962 27.9288C43.2075 29.8015 42.5651 32.3678 40.7472 33.2832C38.8293 34.249 37.3589 34.1331 38.8349 31.6422C39.7279 30.1351 40.2589 31.7938 40.6249 31.0567" stroke="rgb(0,173,181)" stroke-opacity="0.5" stroke-linecap="round" stroke-linejoin="round" stroke-width="1.66333342" />
</svg>
