<svg viewBox="0 0 413.035 353.843" xmlns="http://www.w3.org/2000/svg" xmlns:xlink="http://www.w3.org/1999/xlink" width="413.035156" height="353.842651" fill="none" customFrame="#000000">
	<g id="Group 62">
		<g id="Group 61">
			<path id="Rectangle 42" d="M80.8159 0L111.937 60.548C111.937 60.548 158.516 105.085 126.269 150.317C94.0216 195.549 6.17471 148.028 6.17471 148.028L0 120.091L61.5281 109.789C61.5281 109.789 17.6002 54.2927 80.8159 0Z" fill="rgb(0,173,181)" fill-rule="nonzero" transform="matrix(0.413643,-0.910439,0.910439,0.413643,75.3091,271.502)" />
			<path id="Rectangle 42" d="M111.937 60.548C111.937 60.548 158.516 105.085 126.269 150.317C94.0216 195.549 6.17471 148.028 6.17471 148.028L0 120.091L61.5281 109.789C61.5281 109.789 17.6002 54.2927 80.8159 0L111.937 60.548Z" fill-rule="nonzero" stroke="rgb(0,0,0)" stroke-linejoin="round" stroke-width="1.3988688" transform="matrix(0.413643,-0.910439,0.910439,0.413643,75.3091,271.502)" />
			<path id="Vector 61" d="M35.174 3.35155L6.02831 0L0 25.3952C0 25.3952 25.0818 28.9231 40.9843 26.4261L31.6051 19.2714L35.174 3.35155Z" fill="rgb(238,238,238)" fill-rule="evenodd" transform="matrix(0.981507,0.191428,-0.191428,0.981507,180.034,316.142)" />
			<path id="Vector 61" d="M35.174 3.35155L31.6051 19.2714L40.9843 26.4261C25.0818 28.9231 0 25.3952 0 25.3952L6.02831 0L35.174 3.35155Z" fill-rule="evenodd" stroke="rgb(0,0,0)" stroke-linejoin="round" stroke-width="1.3988688" transform="matrix(0.981507,0.191428,-0.191428,0.981507,180.034,316.142)" />
			<path id="Rectangle 41" d="M35.4694 0L111.937 46.9748C111.937 46.9748 158.516 91.5121 126.269 136.744C94.0216 181.976 6.17471 134.455 6.17471 134.455L0 106.518L67.1412 92.5923C67.1412 92.5923 1.8227 69.7153 35.4694 0Z" fill="rgb(0,173,181)" fill-rule="nonzero" transform="matrix(0.847613,-0.530615,0.530615,0.847613,75.911,219.11)" />
			<path id="Rectangle 41" d="M111.937 46.9748C111.937 46.9748 158.516 91.5121 126.269 136.744C94.0216 181.976 6.17471 134.455 6.17471 134.455L0 106.518L67.1412 92.5923C67.1412 92.5923 1.8227 69.7153 35.4694 0L111.937 46.9748Z" fill-rule="nonzero" stroke="rgb(0,0,0)" stroke-width="1.3988688" transform="matrix(0.847613,-0.530615,0.530615,0.847613,75.911,219.11)" />
			<path id="Vector 60" d="M35.174 3.35155L6.02831 0L0 25.3952C0 25.3952 25.0818 28.9231 40.9843 26.4261L31.6051 19.2714L35.174 3.35155Z" fill="rgb(238,238,238)" fill-rule="evenodd" transform="matrix(0.712574,0.701597,-0.701597,0.712574,131.368,302.652)" />
			<path id="Vector 60" d="M35.174 3.35155L31.6051 19.2714L40.9843 26.4261C25.0818 28.9231 0 25.3952 0 25.3952L6.02831 0L35.174 3.35155Z" fill-rule="evenodd" stroke="rgb(0,0,0)" stroke-linejoin="round" stroke-width="1.3988688" transform="matrix(0.712574,0.701597,-0.701597,0.712574,131.368,302.652)" />
		</g>
		<g id="Group 78">
			<g id="Group 2349">
				<g id="Group 58">
					<g id="Group 57">
						<path id="Union" d="M43.9935 48.4606C46.1983 48.5623 48.4465 48.3038 50.7008 47.5824C67.7195 42.1364 69.081 23.7563 64.9965 12.1836C60.912 0.610863 13.0505 -15.4602 18.7057 32.606C18.775 32.7005 18.8459 32.796 18.9184 32.8927C18.1091 41.7133 13.2473 47.537 7.41393 54.5246C5.03457 57.3747 2.49358 60.4184 0 63.9382L23.9415 71.9891C33.9569 65.9841 40.0348 58.2516 43.9935 48.4606Z" fill="rgb(245,185,171)" fill-rule="evenodd" transform="matrix(0.546285,-0.837599,0.837599,0.546285,49.7513,117.742)" />
						<path id="Union" d="M50.7008 47.5824C67.7195 42.1364 69.081 23.7563 64.9965 12.1836C60.912 0.610863 13.0505 -15.4602 18.7057 32.606C18.775 32.7005 18.8459 32.796 18.9184 32.8927C18.1091 41.7133 13.2473 47.537 7.41393 54.5246C5.03457 57.3747 2.49358 60.4184 0 63.9382L23.9415 71.9891C33.9569 65.9841 40.0348 58.2516 43.9935 48.4606C46.1983 48.5623 48.4465 48.3038 50.7008 47.5824Z" fill-rule="evenodd" stroke="rgb(0,0,0)" stroke-linejoin="round" stroke-width="1.3988688" transform="matrix(0.546285,-0.837599,0.837599,0.546285,49.7513,117.742)" />
						<path id="Vector 66" d="M48.8192 29.2835C53.1436 34.4727 49.8764 48.2885 46.9935 51.8921C71.8584 35.6687 53.1421 4.42569 45.576 10.9097C43.4153 -0.982227 29.3597 -4.22548 20.711 6.5826C-4.15397 -10.7148 -3.07289 21.7178 5.5758 26.0421C14.2245 30.3665 23.9543 24.9611 29.3597 27.1232C34.7651 29.2854 39.0895 44.4187 40.1706 35.77C41.2516 27.1214 43.4138 22.797 48.8192 29.2835Z" fill="rgb(0,173,181)" fill-rule="evenodd" transform="matrix(-0.784766,0.619792,0.619792,0.784766,89.3914,48.1276)" />
						<path id="Vector 66" d="M48.8192 29.2835C43.4138 22.797 41.2516 27.1214 40.1706 35.77C39.0895 44.4187 34.7651 29.2854 29.3597 27.1232C23.9543 24.9611 14.2245 30.3665 5.5758 26.0421C-3.07289 21.7178 -4.15397 -10.7148 20.711 6.5826C29.3597 -4.22548 43.4153 -0.982227 45.576 10.9097C53.1421 4.42569 71.8584 35.6687 46.9935 51.8921C49.8764 48.2885 53.1436 34.4727 48.8192 29.2835Z" fill-rule="evenodd" stroke="rgb(0,0,0)" stroke-width="1.39886892" transform="matrix(-0.784766,0.619792,0.619792,0.784766,89.3914,48.1276)" />
					</g>
				</g>
				<path id="Vector 53" d="M80.9956 119.429C112.655 102.426 91.735 42.9471 91.735 42.9471C80.8739 16.9217 54.4503 -6.38053 29.4382 6.64563C-10.8836 27.645 2.67146 93.1581 0.59197 126.614L80.9956 119.429Z" fill="rgb(238,238,238)" fill-rule="evenodd" transform="matrix(0.784766,-0.619792,0.619792,0.784766,60.2805,152.951)" />
				<path id="Vector 53" d="M80.9956 119.429L0.59197 126.614C2.67146 93.1581 -10.8836 27.645 29.4382 6.64563C54.4503 -6.38053 80.8739 16.9217 91.735 42.9471C91.735 42.9471 112.655 102.426 80.9956 119.429Z" fill-rule="evenodd" stroke="rgb(0,0,0)" stroke-linejoin="round" stroke-width="1.39886892" transform="matrix(0.784766,-0.619792,0.619792,0.784766,60.2805,152.951)" />
				<path id="Vector 54" d="M116.472 72.6901L99.727 46.1035L67.2015 64.7109C67.3419 30.6408 34.0286 -1.60965 19.1144 0.0622935C-20.9799 4.55802 10.4393 97.596 36.6065 114.152C62.7737 130.708 116.472 72.6901 116.472 72.6901Z" fill="rgb(238,238,238)" fill-rule="evenodd" transform="matrix(0.989922,-0.141613,0.141613,0.989922,88.0884,125.805)" />
				<path id="Vector 54" d="M116.472 72.6901C116.472 72.6901 62.7737 130.708 36.6065 114.152C10.4393 97.596 -20.9799 4.55802 19.1144 0.0622935C34.0286 -1.60965 67.3419 30.6408 67.2015 64.7109L99.727 46.1035L116.472 72.6901Z" fill-rule="evenodd" stroke="rgb(0,0,0)" stroke-width="1.39886892" transform="matrix(0.989922,-0.141613,0.141613,0.989922,88.0884,125.805)" />
				<path id="Vector 59" d="M6.18322 0.0242092L2.5361 0L0 31.5817L5.95137 31.6295C15.931 31.7097 23.4854 22.6337 21.5955 12.8343C20.1687 5.43621 13.7175 0.07422 6.18322 0.0242092Z" fill="rgb(245,185,171)" fill-rule="evenodd" transform="matrix(0.703251,-0.710941,0.710941,0.703251,190.737,159.763)" />
				<path id="Vector 59" d="M6.18322 0.0242092C13.7175 0.07422 20.1687 5.43621 21.5955 12.8343C23.4854 22.6337 15.931 31.7097 5.95137 31.6295L0 31.5817L2.5361 0L6.18322 0.0242092Z" fill-rule="evenodd" stroke="rgb(0,0,0)" stroke-linejoin="round" stroke-width="1.3988688" transform="matrix(0.703251,-0.710941,0.710941,0.703251,190.737,159.763)" />
			</g>
			<path id="Union" d="M101.91 249.233C97.8482 249.744 94.8548 250.121 91.9353 249.365C91.6055 249.28 91.2725 249.522 91.2731 249.863L91.4338 341.04L73.1881 341.04C72.9108 341.04 72.6859 341.264 72.6859 341.542L72.6859 352.641C72.6859 352.918 72.9108 353.143 73.1881 353.143L125.094 353.143C125.372 353.143 125.596 352.918 125.596 352.641L125.596 341.542C125.596 341.264 125.372 341.04 125.094 341.04L105.279 341.04L105.279 249.388C105.279 249.089 105.019 248.856 104.722 248.89C103.727 249.004 102.794 249.121 101.91 249.233Z" fill="rgb(0,173,181)" fill-rule="evenodd" />
			<path id="Union" d="M91.9353 249.365C91.6055 249.28 91.2725 249.522 91.2731 249.863L91.4338 341.04L73.1881 341.04C72.9108 341.04 72.6859 341.264 72.6859 341.542L72.6859 352.641C72.6859 352.918 72.9108 353.143 73.1881 353.143L125.094 353.143C125.372 353.143 125.596 352.918 125.596 352.641L125.596 341.542C125.596 341.264 125.372 341.04 125.094 341.04L105.279 341.04L105.279 249.388C105.279 249.089 105.019 248.856 104.722 248.89C103.727 249.004 102.794 249.121 101.91 249.233C97.8482 249.744 94.8548 250.121 91.9353 249.365Z" fill-rule="evenodd" stroke="rgb(0,0,0)" stroke-width="1.3988688" />
			<path id="Vector 85" d="M33.6457 0C33.6457 30.8449 8.94681 31.7844 1.87283 49.3205C-7.91706 73.5894 21.6661 113.381 67.4441 73.2978" stroke="rgb(0,0,0)" stroke-width="1.3988688" transform="matrix(0.922132,-0.386876,0.386876,0.922132,39.3628,171.506)" />
			<rect id="Rectangle 49" width="32.507118" height="105.129402" x="0.000000" y="0.000000" rx="15.819109" fill="rgb(0,173,181)" transform="matrix(0.922132,-0.386876,0.386876,0.922132,22.3704,103.616)" />
			<rect id="Rectangle 49" width="32.507118" height="105.129402" x="0.000000" y="0.000000" rx="15.819109" stroke="rgb(0,0,0)" stroke-width="1.3988688" transform="matrix(0.922132,-0.386876,0.386876,0.922132,22.3704,103.616)" />
			<rect id="Rectangle 51" width="15.561917" height="142.132187" x="316.188965" y="211.009644" rx="0.502194" fill="rgb(0,173,181)" />
			<rect id="Rectangle 51" width="15.561917" height="142.132187" x="316.188965" y="211.009644" rx="0.502194" stroke="rgb(0,0,0)" stroke-width="1.3988688" />
			<rect id="Rectangle 50" width="52.107006" height="112.515083" x="0.000000" y="0.000000" rx="24.561653" fill="rgb(0,173,181)" transform="matrix(0.0218349,0.999762,-0.999762,0.0218349,199.858,210.364)" />
			<rect id="Rectangle 50" width="52.107006" height="112.515083" x="0.000000" y="0.000000" rx="24.561653" stroke="rgb(0,0,0)" stroke-width="1.3988688" transform="matrix(0.0218349,0.999762,-0.999762,0.0218349,199.858,210.364)" />
			<rect id="Rectangle 52" width="32.507118" height="176.821655" x="0.000000" y="0.000000" rx="15.819109" fill="rgb(0,173,181)" transform="matrix(0.0218349,0.999762,-0.999762,0.0218349,411.967,183.752)" />
			<rect id="Rectangle 52" width="32.507118" height="176.821655" x="0.000000" y="0.000000" rx="15.819109" stroke="rgb(0,0,0)" stroke-width="1.3988688" transform="matrix(0.0218349,0.999762,-0.999762,0.0218349,411.967,183.752)" />
			<rect id="Rectangle 53" width="82.996902" height="15.561915" x="0.000000" y="0.000000" rx="2.008776" fill="rgb(0,173,181)" transform="matrix(-0.258819,0.965926,-0.965926,-0.258819,386.425,98.6036)" />
			<rect id="Rectangle 53" width="82.996902" height="15.561915" x="0.000000" y="0.000000" rx="2.008776" stroke="rgb(0,0,0)" stroke-width="1.3988688" transform="matrix(-0.258819,0.965926,-0.965926,-0.258819,386.425,98.6036)" />
			<rect id="Rectangle 54" width="82.996902" height="15.561917" x="285.244629" y="170.656128" rx="2.008776" fill="rgb(238,238,238)" />
			<rect id="Rectangle 54" width="82.996902" height="15.561917" x="285.244629" y="170.656128" rx="2.008776" stroke="rgb(0,0,0)" stroke-width="1.3988688" />
		</g>
	</g>
</svg>
