<svg viewBox="0 0 400.269 472.655" xmlns="http://www.w3.org/2000/svg" xmlns:xlink="http://www.w3.org/1999/xlink" width="400.268921" height="472.654877" fill="none" customFrame="#000000">
	<g id="Group 2346">
		<g id="Group 2345">
			<g id="Group 58">
				<g id="Group 57">
					<path id="Union" d="M51.8262 57.0881C54.4237 57.208 57.0722 56.9035 59.728 56.0536C79.7766 49.6381 81.3805 27.9856 76.5688 14.3526C71.7571 0.719615 15.3748 -18.2126 22.0368 38.4109C22.1182 38.5219 22.2015 38.6343 22.2867 38.7478C21.3338 49.1398 15.6062 56.0007 8.73385 64.2328C5.93089 67.5903 2.93751 71.176 0 75.3223L28.2039 84.8066C40.0028 77.7323 47.1628 68.6228 51.8262 57.0881Z" fill="rgb(245,185,171)" fill-rule="evenodd" transform="matrix(-0.922639,-0.385664,-0.385664,0.922639,359.714,62.177)" />
					<path id="Union" d="M59.728 56.0536C79.7766 49.6381 81.3805 27.9856 76.5688 14.3526C71.7571 0.719615 15.3748 -18.2126 22.0368 38.4109C22.1182 38.5219 22.2015 38.6343 22.2867 38.7478C21.3338 49.1398 15.6062 56.0007 8.73385 64.2328C5.93089 67.5903 2.93751 71.176 0 75.3223L28.2039 84.8066C40.0028 77.7323 47.1628 68.6228 51.8262 57.0881C54.4237 57.208 57.0722 56.9035 59.728 56.0536Z" fill-rule="evenodd" stroke="rgb(0,0,0)" stroke-linejoin="round" stroke-width="1.3988688" transform="matrix(-0.922639,-0.385664,-0.385664,0.922639,359.714,62.177)" />
					<path id="Vector 66" d="M57.5106 34.4969C62.6049 40.61 58.756 56.8854 55.3598 61.1306C84.6516 42.0189 62.6031 5.21361 53.69 12.852C51.1446 -1.15709 34.5867 -4.97776 24.3982 7.75452C-4.89351 -12.6223 -3.61996 25.5843 6.56847 30.6785C16.7569 35.7727 28.2189 29.4049 34.5867 31.952C40.9544 34.4992 46.0486 52.3267 47.3222 42.1383C48.5958 31.9498 51.1429 26.8556 57.5106 34.4969Z" fill="rgb(0,173,181)" fill-rule="evenodd" transform="matrix(0.997443,0.0714698,-0.0714698,0.997443,274.995,20.6015)" />
					<path id="Vector 66" d="M57.5106 34.4969C51.1429 26.8556 48.5958 31.9498 47.3222 42.1383C46.0486 52.3267 40.9544 34.4992 34.5867 31.952C28.2189 29.4049 16.7569 35.7727 6.56847 30.6785C-3.61996 25.5843 -4.89351 -12.6223 24.3982 7.75452C34.5867 -4.97776 51.1446 -1.15709 53.69 12.852C62.6031 5.21361 84.6516 42.0189 55.3598 61.1306C58.756 56.8854 62.6049 40.61 57.5106 34.4969Z" fill-rule="evenodd" stroke="rgb(0,0,0)" stroke-width="1.3988688" transform="matrix(0.997443,0.0714698,-0.0714698,0.997443,274.995,20.6015)" />
				</g>
			</g>
			<g id="Group 2343">
				<path id="Vector 83" d="M42.938 238.165L85.9098 234.115L73.0587 118.489C73.0587 118.489 120.448 -0.916448 77.5825 0.00530932C17.0154 1.30854 -1.23014 95.0592 0.0634261 120.06C1.35699 145.06 42.938 238.165 42.938 238.165Z" fill="rgb(238,238,238)" fill-rule="evenodd" transform="matrix(-0.999769,0.0215116,0.0215116,0.999769,395.145,101.956)" />
				<path id="Vector 83" d="M42.938 238.165C42.938 238.165 1.35699 145.06 0.0634261 120.06C-1.23014 95.0592 17.0154 1.30854 77.5825 0.00530932C120.448 -0.916448 73.0587 118.489 73.0587 118.489L85.9098 234.115L42.938 238.165Z" fill-rule="evenodd" stroke="rgb(0,0,0)" stroke-width="1.3988688" transform="matrix(-0.999769,0.0215116,0.0215116,0.999769,395.145,101.956)" />
				<path id="Vector 84" d="M8.77567 0.0345945L3.50911 0L0 43.2443L8.46149 43.3116C22.143 43.4204 32.4902 30.9633 29.873 17.534C27.9025 7.42264 19.077 0.102263 8.77567 0.0345945Z" fill="rgb(245,185,171)" fill-rule="evenodd" transform="matrix(-0.120834,0.992673,0.992673,0.120834,314.992,334.162)" />
				<path id="Vector 84" d="M8.77567 0.0345945C19.077 0.102263 27.9025 7.42264 29.873 17.534C32.4902 30.9633 22.143 43.4204 8.46149 43.3116L0 43.2443L3.50911 0L8.77567 0.0345945Z" fill-rule="evenodd" stroke="rgb(0,0,0)" stroke-linejoin="round" stroke-width="1.3988688" transform="matrix(-0.120834,0.992673,0.992673,0.120834,314.992,334.162)" />
			</g>
			<path id="Vector 53" d="M101.442 170.126C135.805 151.672 126.937 55.6479 124.407 43.8006C120.631 26.8695 104.034 -5.43718 67.8488 0.784646C13.1299 10.1932 2.61596 130.765 0 172.853L101.442 170.126Z" fill="rgb(238,238,238)" fill-rule="evenodd" transform="matrix(-0.961848,-0.273585,-0.273585,0.961848,395.596,121.72)" />
			<path id="Vector 53" d="M101.442 170.126L0 172.853C2.61596 130.765 13.1299 10.1932 67.8488 0.784646C104.034 -5.43718 120.631 26.8695 124.407 43.8006C126.937 55.6479 135.805 151.672 101.442 170.126Z" fill-rule="evenodd" stroke="rgb(0,0,0)" stroke-width="1.3988688" transform="matrix(-0.961848,-0.273585,-0.273585,0.961848,395.596,121.72)" />
			<path id="Rectangle 59" d="M0 265.239L34.2603 287.835C34.2603 287.835 112.204 210.025 162.871 138.956L207.749 28.7424C178.394 -6.27859 105.538 -33.684 77.0375 100.102L0 265.239Z" fill="rgb(0,173,181)" fill-rule="evenodd" transform="matrix(0.455431,-0.890271,-0.890271,-0.455431,269.558,472.655)" />
			<path id="Rectangle 59" d="M0 265.239L77.0375 100.102C105.538 -33.684 178.394 -6.27859 207.749 28.7424L162.871 138.956C112.204 210.025 34.2603 287.835 34.2603 287.835L0 265.239Z" fill-rule="evenodd" stroke="rgb(0,0,0)" stroke-width="1.3988688" transform="matrix(0.455431,-0.890271,-0.890271,-0.455431,269.558,472.655)" />
			<path id="Union" d="M160.378 280.389L141.763 338.284L102.707 336.377L84.886 228.371C81.9337 210.479 95.7377 194.21 113.872 194.21L138.036 194.21L139.706 191.601L147.817 194.21C154.3 194.218 160.17 196.281 164.928 199.714L329.055 252.51C354.437 260.675 365.854 290.144 352.596 313.278L327.488 357.092C314.455 379.835 283.983 385.179 263.989 368.228L160.378 280.389Z" fill="rgb(0,173,181)" fill-rule="evenodd" />
			<path id="Union" d="M141.763 338.284L102.707 336.377L84.886 228.371C81.9337 210.479 95.7377 194.21 113.872 194.21L138.036 194.21L139.706 191.601L147.817 194.21C154.3 194.218 160.17 196.281 164.928 199.714L329.055 252.51C354.437 260.675 365.854 290.144 352.596 313.278L327.488 357.092C314.455 379.835 283.983 385.179 263.989 368.228L160.378 280.389L141.763 338.284Z" fill-rule="evenodd" stroke="rgb(0,0,0)" stroke-width="1.3988688" />
			<path id="Vector 61" d="M48.1629 3.97606L8.35375 0L0 32.6172C0 32.6172 34.7572 37.1484 56.7941 33.9414L43.7969 24.7519L48.1629 3.97606Z" fill="rgb(238,238,238)" fill-rule="evenodd" transform="matrix(-0.987446,-0.157958,-0.157958,0.987446,150.443,339.617)" />
			<path id="Vector 61" d="M48.1629 3.97606L43.7969 24.7519L56.7941 33.9414C34.7572 37.1484 0 32.6172 0 32.6172L8.35375 0L48.1629 3.97606Z" fill-rule="evenodd" stroke="rgb(0,0,0)" stroke-linejoin="round" stroke-width="1.3988688" transform="matrix(-0.987446,-0.157958,-0.157958,0.987446,150.443,339.617)" />
			<rect id="Rectangle 53" width="97.773033" height="18.332439" x="0.000000" y="0.000000" rx="2.008776" fill="rgb(238,238,238)" transform="matrix(0.258819,0.965926,0.965926,-0.258819,88.797,91.5376)" />
			<rect id="Rectangle 53" width="97.773033" height="18.332439" x="0.000000" y="0.000000" rx="2.008776" stroke="rgb(0,0,0)" stroke-width="1.3988688" transform="matrix(0.258819,0.965926,0.965926,-0.258819,88.797,91.5376)" />
			<rect id="Rectangle 54" width="97.773033" height="18.332443" x="0.000000" y="0.000000" rx="2.008776" fill="rgb(0,173,181)" transform="matrix(-1,0,0,1,207.992,176.418)" />
			<rect id="Rectangle 54" width="97.773033" height="18.332443" x="0.000000" y="0.000000" rx="2.008776" stroke="rgb(0,0,0)" stroke-width="1.3988688" transform="matrix(-1,0,0,1,207.992,176.418)" />
			<path id="Vector 82" d="M48.3342 3.8579L7.43495 0L0 30.0187C0 30.0187 35.2746 34.7028 57.6396 31.3875L44.4489 21.8882L48.3342 3.8579Z" fill="rgb(238,238,238)" fill-rule="evenodd" transform="matrix(-0.0264852,-0.999649,-0.999649,0.0264852,34.358,359.31)" />
			<path id="Vector 82" d="M48.3342 3.8579L44.4489 21.8882L57.6396 31.3875C35.2746 34.7028 0 30.0187 0 30.0187L7.43495 0L48.3342 3.8579Z" fill-rule="evenodd" stroke="rgb(0,0,0)" stroke-linejoin="round" stroke-width="1.3988688" transform="matrix(-0.0264852,-0.999649,-0.999649,0.0264852,34.358,359.31)" />
			<path id="Vector 83" d="M176.381 98.3013L153.213 61.5145L85.4387 100.332C87.6554 57.1676 56.7405 -4.21771 25.7602 0.228574C-28.5902 8.02834 14.4459 141.481 50.6525 164.389C86.8591 187.297 176.381 98.3013 176.381 98.3013Z" fill="rgb(238,238,238)" fill-rule="evenodd" transform="matrix(-0.999769,0.0215116,0.0215116,0.999769,351.489,103.542)" />
			<path id="Vector 54" d="M55.0349 0L79.6023 57.974L147.376 19.1564L170.545 55.9431C170.545 55.9431 81.0227 144.939 44.8161 122.031C27.7627 111.241 9.19413 75.9279 0 40.7708" stroke="rgb(0,0,0)" stroke-width="1.3988688" transform="matrix(-0.999769,0.0215116,0.0215116,0.999769,346.565,146.016)" />
			<path id="Vector 59" d="M8.77567 0.0345945L3.50911 0L0 43.2443L8.46149 43.3116C22.143 43.4204 32.4902 30.9633 29.873 17.534C27.9025 7.42264 19.077 0.102263 8.77567 0.0345945Z" fill="rgb(245,185,171)" fill-rule="evenodd" transform="matrix(-0.809655,-0.586906,-0.586906,0.809655,202.688,170.632)" />
			<path id="Vector 59" d="M8.77567 0.0345945C19.077 0.102263 27.9025 7.42264 29.873 17.534C32.4902 30.9633 22.143 43.4204 8.46149 43.3116L0 43.2443L3.50911 0L8.77567 0.0345945Z" fill-rule="evenodd" stroke="rgb(0,0,0)" stroke-linejoin="round" stroke-width="1.3988688" transform="matrix(-0.809655,-0.586906,-0.586906,0.809655,202.688,170.632)" />
		</g>
	</g>
</svg>
