<svg viewBox="0 0 256.518 348.823" xmlns="http://www.w3.org/2000/svg" xmlns:xlink="http://www.w3.org/1999/xlink" width="256.517944" height="348.822510" fill="none" customFrame="#000000">
	<g id="Group 2372">
		<g id="Group 2369">
			<g id="Group 2368">
				<rect id="Rectangle 345" width="45.030872" height="92.943726" x="119.522095" y="255.056396" rx="3.515357" fill="rgb(0,173,181)" />
				<rect id="Rectangle 345" width="45.030872" height="92.943726" x="119.522095" y="255.056396" rx="3.515357" stroke="rgb(0,0,0)" stroke-linejoin="round" stroke-width="1.64486146" />
				<rect id="Rectangle 346" width="45.030872" height="66.105324" x="1.721436" y="281.894775" rx="3.515357" fill="rgb(238,238,238)" />
				<rect id="Rectangle 346" width="45.030872" height="66.105324" x="1.721436" y="281.894775" rx="3.515357" stroke="rgb(0,0,0)" stroke-linejoin="round" stroke-width="1.64486146" />
				<rect id="Rectangle 347" width="45.030872" height="195.974350" x="210.664673" y="152.025635" rx="3.515357" fill="rgb(0,173,181)" />
				<rect id="Rectangle 347" width="45.030872" height="195.974350" x="210.664673" y="152.025635" rx="3.515357" stroke="rgb(0,0,0)" stroke-linejoin="round" stroke-width="1.64486146" />
			</g>
		</g>
		<g id="Group 2371">
			<g id="Group 62">
				<g id="Group 61">
					<path id="Rectangle 41" d="M1.81013 19.1236L43.9751 0C43.9751 0 65.1082 64.4603 60.5288 78.6768C55.9494 92.8934 20.6072 142.216 20.6072 142.216L0 139.633L8.58634 78.6768C8.58634 78.6768 -3.08881 61.7201 1.81013 19.1236Z" fill="rgb(0,173,181)" fill-rule="nonzero" transform="matrix(0.910711,0.413044,-0.413044,0.910711,67.7455,110.005)" />
					<path id="Rectangle 41" d="M43.9751 0C43.9751 0 65.1082 64.4603 60.5288 78.6768C55.9494 92.8934 20.6072 142.216 20.6072 142.216L0 139.633L8.58634 78.6768C8.58634 78.6768 -3.08881 61.7201 1.81013 19.1236L43.9751 0Z" fill-rule="nonzero" stroke="rgb(0,0,0)" stroke-width="1.3988688" transform="matrix(0.910711,0.413044,-0.413044,0.910711,67.7455,110.005)" />
					<path id="Vector 60" d="M25.3876 1.71727L4.35107 0L0 13.012C0 13.012 18.1033 14.8196 29.5813 13.5402L22.8117 9.87428L25.3876 1.71727Z" fill="rgb(238,238,238)" fill-rule="evenodd" transform="matrix(0.910711,0.413044,-0.413044,0.910711,6.1084,235.375)" />
					<path id="Vector 60" d="M25.3876 1.71727L22.8117 9.87428L29.5813 13.5402C18.1033 14.8196 0 13.012 0 13.012L4.35107 0L25.3876 1.71727Z" fill-rule="evenodd" stroke="rgb(0,0,0)" stroke-linejoin="round" stroke-width="1.3988688" transform="matrix(0.910711,0.413044,-0.413044,0.910711,6.1084,235.375)" />
					<path id="Rectangle 40" d="M8.18575 0L51.318 26.433C51.318 26.433 62.3263 62.2267 57.7469 76.4432C53.1676 90.6597 22.1522 133.404 22.1522 133.404L0 130.399L11.141 71.9632C11.141 71.9632 3.28681 42.5965 8.18575 0Z" fill="rgb(0,173,181)" fill-rule="nonzero" transform="matrix(0.851938,-0.523643,0.523643,0.851938,54.7188,131.472)" />
					<path id="Rectangle 40" d="M51.318 26.433C51.318 26.433 62.3263 62.2267 57.7469 76.4432C53.1676 90.6597 22.1522 133.404 22.1522 133.404L0 130.399L11.141 71.9632C11.141 71.9632 3.28681 42.5965 8.18575 0L51.318 26.433Z" fill-rule="nonzero" stroke="rgb(0,0,0)" stroke-linejoin="round" stroke-width="1.3988688" transform="matrix(0.851938,-0.523643,0.523643,0.851938,54.7188,131.472)" />
					<g id="Group 2370">
						<g id="Group 58">
							<g id="Group 57">
								<path id="Union" d="M24.4128 26.8915C25.6364 26.948 26.8841 26.8046 28.1352 26.4042C37.5791 23.3822 38.3346 13.1827 36.0681 6.76085C33.8015 0.338977 7.24244 -8.5791 10.3806 18.0936C10.4189 18.1458 10.4581 18.1987 10.4982 18.2521C10.0494 23.1473 7.35134 26.3791 4.11411 30.2568C2.79377 31.8384 1.38372 33.5274 0 35.4806L13.2855 39.9482C18.8433 36.6159 22.2161 32.3249 24.4128 26.8915Z" fill="rgb(245,185,171)" fill-rule="evenodd" transform="matrix(0.922639,-0.385664,0.385664,0.922639,73.1667,29.2886)" />
								<path id="Union" d="M28.1352 26.4042C37.5791 23.3822 38.3346 13.1827 36.0681 6.76085C33.8015 0.338977 7.24244 -8.5791 10.3806 18.0936C10.4189 18.1458 10.4581 18.1987 10.4982 18.2521C10.0494 23.1473 7.35134 26.3791 4.11411 30.2568C2.79377 31.8384 1.38372 33.5274 0 35.4806L13.2855 39.9482C18.8433 36.6159 22.2161 32.3249 24.4128 26.8915C25.6364 26.948 26.8841 26.8046 28.1352 26.4042Z" fill-rule="evenodd" stroke="rgb(0,0,0)" stroke-linejoin="round" stroke-width="1.64486146" transform="matrix(0.922639,-0.385664,0.385664,0.922639,73.1667,29.2886)" />
								<path id="Vector 66" d="M27.0906 16.2499C29.4902 19.1295 27.6772 26.796 26.0774 28.7957C39.8754 19.7931 29.4894 2.45589 25.2908 6.05397C24.0918 -0.545053 16.2921 -2.34479 11.4929 3.65279C-2.3051 -5.94579 -1.70519 12.0515 3.0941 14.4512C7.89339 16.8508 13.2926 13.8513 16.2921 15.0511C19.2917 16.2509 21.6914 24.6486 22.2913 19.8494C22.8912 15.0501 24.091 12.6504 27.0906 16.2499Z" fill="rgb(0,173,181)" fill-rule="evenodd" transform="matrix(-0.997443,0.0714698,0.0714698,0.997443,113.074,9.70459)" />
								<path id="Vector 66" d="M27.0906 16.2499C24.091 12.6504 22.8912 15.0501 22.2913 19.8494C21.6914 24.6486 19.2917 16.2509 16.2921 15.0511C13.2926 13.8513 7.89339 16.8508 3.0941 14.4512C-1.70519 12.0515 -2.3051 -5.94579 11.4929 3.65279C16.2921 -2.34479 24.0918 -0.545053 25.2908 6.05397C29.4894 2.45589 39.8754 19.7931 26.0774 28.7957C27.6772 26.796 29.4902 19.1295 27.0906 16.2499Z" fill-rule="evenodd" stroke="rgb(0,0,0)" stroke-width="1.64486134" transform="matrix(-0.997443,0.0714698,0.0714698,0.997443,113.074,9.70459)" />
							</g>
						</g>
						<path id="Vector 53" d="M52.2784 82.8327C68.0229 73.9144 64.2412 38.945 62.803 28.9333C62.5451 27.1375 62.0931 25.3776 61.5212 23.6559C56.8209 9.50525 43.6124 -2.56879 29.7189 2.84434C0.110882 14.38 1.25739 58.0759 0 79.4136L52.2784 82.8327Z" fill="rgb(238,238,238)" fill-rule="evenodd" transform="matrix(0.997443,-0.0714698,0.0714698,0.997443,55.9039,49.3801)" />
						<path id="Vector 53" d="M52.2784 82.8327L0 79.4136C1.25739 58.0759 0.110882 14.38 29.7189 2.84434C43.6124 -2.56879 56.8209 9.50525 61.5212 23.6559C62.0931 25.3776 62.5451 27.1375 62.803 28.9333C64.2412 38.945 68.0229 73.9144 52.2784 82.8327Z" fill-rule="evenodd" stroke="rgb(0,0,0)" stroke-linejoin="round" stroke-width="1.64486146" transform="matrix(0.997443,-0.0714698,0.0714698,0.997443,55.9039,49.3801)" />
						<path id="Vector 54" d="M74.8566 50.2653L74.2116 31.1815L24.4879 29.0808L30.1296 0L0.459186 10.7108C0.459186 10.7108 -2.29237 44.7519 5.67563 49.7932C20.1962 58.9803 74.8566 50.2653 74.8566 50.2653Z" fill="rgb(238,238,238)" fill-rule="evenodd" transform="matrix(0.794442,-0.607341,0.607341,0.794442,69.3265,86.9028)" />
						<path id="Vector 61" d="M29.2311 0L24.451 26.2776L73.7709 29.0954L74.4159 48.1792C74.4159 48.1792 21.6426 58.0242 3.82135 46.7488C-1.78755 43.2001 0.434056 8.58026 0.434056 8.58026" stroke="rgb(0,0,0)" stroke-width="1.64486146" transform="matrix(0.794442,-0.607341,0.607341,0.794442,70.9434,88.293)" />
						<path id="Vector 59" d="M11.298 2.3042L6.08898 0L0 18.4427L4.64423 19.9108C9.58534 21.4728 14.8606 18.7529 16.4539 13.8218C17.938 9.22876 15.7123 4.25683 11.298 2.3042Z" fill="rgb(245,185,171)" fill-rule="evenodd" transform="matrix(0.551143,-0.834411,0.834411,0.551143,143.096,72.0952)" />
						<path id="Vector 59" d="M11.298 2.3042C15.7123 4.25683 17.938 9.22876 16.4539 13.8218C14.8606 18.7529 9.58534 21.4728 4.64423 19.9108L0 18.4427L6.08898 0L11.298 2.3042Z" fill-rule="evenodd" stroke="rgb(0,0,0)" stroke-linejoin="round" stroke-width="1.64486146" transform="matrix(0.551143,-0.834411,0.834411,0.551143,143.096,72.0952)" />
					</g>
					<path id="Vector 56" d="M27.8716 2.83814L4.70774 0L0 13.1256L32.409 14.7643L25.0845 11.0664L27.8716 2.83814Z" fill="rgb(238,238,238)" fill-rule="evenodd" transform="matrix(0.823927,-0.566696,0.566696,0.823927,119.123,245.062)" />
					<path id="Vector 56" d="M27.8716 2.83814L25.0845 11.0664L32.409 14.7643L0 13.1256L4.70774 0L27.8716 2.83814Z" fill-rule="evenodd" stroke="rgb(0,0,0)" stroke-linejoin="round" stroke-width="1.3988688" transform="matrix(0.823927,-0.566696,0.566696,0.823927,119.123,245.062)" />
				</g>
			</g>
		</g>
	</g>
</svg>
